<?xml version="1.0" encoding="UTF-8"?>
<!DOCTYPE svg PUBLIC "-//W3C//DTD SVG 1.1//EN" "http://www.w3.org/Graphics/SVG/1.1/DTD/svg11.dtd">
<svg xmlns="http://www.w3.org/2000/svg" xmlns:xlink="http://www.w3.org/1999/xlink" version="1.1" width="381px" height="251px" viewBox="-0.5 -0.5 381 251" content="&lt;mxfile host=&quot;Electron&quot; modified=&quot;2020-08-30T17:15:37.843Z&quot; agent=&quot;5.0 (Macintosh; Intel Mac OS X 10_13_6) AppleWebKit/537.36 (KHTML, like Gecko) draw.io/13.6.2 Chrome/83.0.4103.122 Electron/9.2.0 Safari/537.36&quot; etag=&quot;qpAmWrm5rAvRZ7-qd18M&quot; version=&quot;13.6.2&quot; type=&quot;device&quot;&gt;&lt;diagram id=&quot;LGlA74V5Dsd33Aisrnxb&quot; name=&quot;Page-1&quot;&gt;7Zvfc6MqFMf/mrx2/G3yuEnb3ZeduTN5uNtHqjQyRcka06T3r78QQRFpYlxM7ax56MhBUPh+PByOduau0uP3HGyTnySGeOZY8XHm3s8cZ+EF9C8zvJeGYG6Vhk2O4tJk14Y1+g9yozhtj2K4a5xYEIILtG0aI5JlMCoaNpDn5NA87YXg5lW3YANbhnUEcNv6L4qLpLTOfau2/4Bok4gr2xaveQbR6yYn+4xfb+a4j/S3WpXVKRB98fN3CYjJQTK5DzN3lRNSlEfpcQUxm1oxbWW7xw9qq/vOYVZ0aeCUDd4A3kNxxwGmTZcvhPbgBBt2nML0GeY7UUW7k2v5SIp3MXsFPDJ7UqSYGmzWGcJ4RTDJaTkjGT1vCTDaZLQY0TuF1L58g3mBqATfeEWK4pj1uDwkqIDrLYhY9wfKG7WdphiyQVi0hMEzxMtq6sWV6skvh/MIUoQZkSuSooje8xpkdFDWzzU9YVfk5BVKTa3Tj9W8wiJK+EjaE8znnN0+PEomPuHfIUlhkb/TU3itx7Xnz4bt8vKhJi3kpkSCTCADONubquNaX3rAJdbL7bbkjkDGsIUdRGzOEJfxKyhrWD9ncVlAbyABvU7Pa0ZnIQN4el6N6O0GTb3DttzBQHL7neQmeTzJPZjctn07vYNOeiMmydsk+FCC+7cTPOwkeA4KRCa1h1F7cTu15xq1FfVgFn9jG5haKklIEzMNj6j4xZVjx0/s+M7npfujVHX/LgoZHegvfhOngtSKFetmp5Jo1027HdnnEWwEqAXIN5CftShNMG5s2dr6Svr5Gv2ELYeYPk1vzY2eTlR+hX8IYg+bwMe3FHxChYtyNLyVvPNSO/KVjlTAyjlodXRirBp2J+wWnZzMNidb5gTgtM8ztE9QUbnhRk/ELJc0J9s9exxINmluRPPqKeaaezeU3L4gufUCuJsNfu9ZgmnZnquqSgCQgD9wByPNGBgX3fUbos/bog+VD7B1CbxrQopqaZdW8ye57oOlvQojqtDhSY4ctGGEMWnkiEFgL4cMwvuNJGZQ8kV9I4ZqWLwf1xosYrDbicJzWEUY7HbUkzTJqghxZETss4hIOIYNHq0LPN6MLWdUaNnKbsb1DMFVQTsAXLokZm+4wl5wOeOEa1x7HdtvrmsqEl3Zsi3nrtmTrWJqkK5uOdPTO8Ip5h3ifZYmoTJYzNstYRoRvE+zSW9D+1r7suA6r2RE8G4J0wI806mf5B5iS6t7/zXY893OmO4ScsjKbvsHDb1ihs8PGZx2xCCWu7GEDOpiMO8bM3z0kn2AiKGdH/2bIVtoIAtGBdncu1tIv/miSUrQE7nz3TrD7baFp5QARCf6OixVf2mKzbnhNzeOLrF6VY6NuwS7h0P4dHcgFphGDmRc+bWvuOgIhv4YKut6qOzPhyoYP1SWc+edWQ5Uz9I50aaG0/5wjBnN4nYPZ4aJfS1NXBKOC5mv6IeuS8be7puUIXzZ9dR5bejcUTHnqh8ZqO6ks18KL3RkkDldinYMzJ1/faln7tKL0uuZC0fP3FxBxe7JnKs6zOFeC2g/rR0Fcz2/vXPMf3ynifTHDZ5jDDw1Z2AQPF3G+iuDF5oHT7MbGDd4LUfV3+P5hsCjxfrfBsvT63/NdB/+Bw==&lt;/diagram&gt;&lt;/mxfile&gt;" style="background-color: rgb(255, 255, 204);"><defs/><g><rect x="0" y="90" width="70" height="20" fill="none" stroke="none" pointer-events="all"/><path d="M 1.44 88.07 C 12.13 87.93 26.68 89.57 69.72 89.78 M -0.54 89.43 C 22.66 89.23 47.13 89.09 70.99 90.98 M 70.47 88.3 C 71.13 94 71.15 97.8 70.63 111.58 M 70.11 89.26 C 69.5 97.13 70.41 103.81 70.96 110.53 M 71.28 108.71 C 50.6 110.46 31.9 110.43 0.75 109.31 M 69.58 110.36 C 53.46 108.86 35.62 108.87 0.05 109.39 M 1.63 111.2 C -2.03 105.57 1.64 99.32 -0.06 88.31 M -0.35 110.86 C -0.8 103.73 0.19 98.46 -0.3 90.03" fill="none" stroke="#000000" stroke-linejoin="round" stroke-linecap="round" stroke-miterlimit="10" pointer-events="all"/><g transform="translate(-0.5 -0.5)"><switch><foreignObject style="overflow: visible; text-align: left;" pointer-events="none" width="100%" height="100%" requiredFeatures="http://www.w3.org/TR/SVG11/feature#Extensibility"><div xmlns="http://www.w3.org/1999/xhtml" style="display: flex; align-items: unsafe center; justify-content: unsafe center; width: 68px; height: 1px; padding-top: 100px; margin-left: 1px;"><div style="box-sizing: border-box; font-size: 0; text-align: center; "><div style="display: inline-block; font-size: 12px; font-family: Comic Sans MS; color: #000000; line-height: 1.2; pointer-events: all; background-color: #FFFFCC; white-space: normal; word-wrap: normal; "><font>members</font></div></div></div></foreignObject><text x="35" y="104" fill="#000000" font-family="Comic Sans MS" font-size="12px" text-anchor="middle">members</text></switch></g><rect x="250" y="90" width="40" height="20" fill="none" stroke="none" pointer-events="all"/><g transform="translate(-0.5 -0.5)"><switch><foreignObject style="overflow: visible; text-align: left;" pointer-events="none" width="100%" height="100%" requiredFeatures="http://www.w3.org/TR/SVG11/feature#Extensibility"><div xmlns="http://www.w3.org/1999/xhtml" style="display: flex; align-items: unsafe center; justify-content: unsafe center; width: 38px; height: 1px; padding-top: 100px; margin-left: 251px;"><div style="box-sizing: border-box; font-size: 0; text-align: center; "><div style="display: inline-block; font-size: 12px; font-family: Comic Sans MS; color: #000000; line-height: 1.2; pointer-events: all; background-color: #FFFFCC; white-space: normal; word-wrap: normal; ">can be</div></div></div></foreignObject><text x="270" y="104" fill="#000000" font-family="Comic Sans MS" font-size="12px" text-anchor="middle">can be</text></switch></g><rect x="320" y="30" width="60" height="20" fill="none" stroke="none" pointer-events="all"/><path d="M 319.15 30 C 333.48 30.05 345.55 29.9 378.13 30.56 M 320.16 29.96 C 342.81 29.64 363.84 30.35 379.83 30.48 M 379.55 28.8 C 379.14 33.17 380.54 39.92 379.42 49.84 M 380.71 29.66 C 380.11 36.15 379.07 41.34 379.77 49.24 M 379.38 48.28 C 363.48 50.04 344.16 48.93 320.43 48.51 M 379.7 50.07 C 368.66 49.6 355.97 49.07 319.93 49.47 M 320.19 50.64 C 320.6 47.04 320.8 40.73 321.12 29.9 M 320.09 50.85 C 319.8 41.87 319.8 33.56 320.58 30.01" fill="none" stroke="#000000" stroke-linejoin="round" stroke-linecap="round" stroke-miterlimit="10" pointer-events="all"/><g transform="translate(-0.5 -0.5)"><switch><foreignObject style="overflow: visible; text-align: left;" pointer-events="none" width="100%" height="100%" requiredFeatures="http://www.w3.org/TR/SVG11/feature#Extensibility"><div xmlns="http://www.w3.org/1999/xhtml" style="display: flex; align-items: unsafe center; justify-content: unsafe center; width: 58px; height: 1px; padding-top: 40px; margin-left: 321px;"><div style="box-sizing: border-box; font-size: 0; text-align: center; "><div style="display: inline-block; font-size: 12px; font-family: Comic Sans MS; color: #000000; line-height: 1.2; pointer-events: all; background-color: #FFFFCC; white-space: normal; word-wrap: normal; "><font>nominal</font></div></div></div></foreignObject><text x="350" y="44" fill="#000000" font-family="Comic Sans MS" font-size="12px" text-anchor="middle">nominal</text></switch></g><rect x="320" y="70" width="60" height="20" fill="none" stroke="none" pointer-events="all"/><path d="M 318.01 68.97 C 331.16 69.69 342.99 70.65 379.34 68.96 M 320.51 69.23 C 343.53 69.79 367.48 69.94 380.25 70.24 M 379.08 69.05 C 378.35 76.75 380.44 80.98 378.81 90.97 M 380 69.86 C 379.22 77.65 379.2 83.1 379.18 90.59 M 378.44 90.07 C 361.57 91.84 342.6 90.19 320.26 90.1 M 379.75 90.93 C 357.02 89.53 334.66 90.73 319.87 90.51 M 321.47 88.36 C 319.91 85.78 318.39 79.44 319.71 70.69 M 319.31 90.85 C 319.7 82.94 320.21 75.1 320.02 69.99" fill="none" stroke="#000000" stroke-linejoin="round" stroke-linecap="round" stroke-miterlimit="10" pointer-events="all"/><g transform="translate(-0.5 -0.5)"><switch><foreignObject style="overflow: visible; text-align: left;" pointer-events="none" width="100%" height="100%" requiredFeatures="http://www.w3.org/TR/SVG11/feature#Extensibility"><div xmlns="http://www.w3.org/1999/xhtml" style="display: flex; align-items: unsafe center; justify-content: unsafe center; width: 58px; height: 1px; padding-top: 80px; margin-left: 321px;"><div style="box-sizing: border-box; font-size: 0; text-align: center; "><div style="display: inline-block; font-size: 12px; font-family: Comic Sans MS; color: #000000; line-height: 1.2; pointer-events: all; background-color: #FFFFCC; white-space: normal; word-wrap: normal; "><font>ordinal</font></div></div></div></foreignObject><text x="350" y="84" fill="#000000" font-family="Comic Sans MS" font-size="12px" text-anchor="middle">ordinal</text></switch></g><rect x="320" y="110" width="60" height="20" fill="none" stroke="none" pointer-events="all"/><path d="M 320.87 111.93 C 332.84 109.33 344.44 111.4 380.54 111.35 M 320.86 110.49 C 332.25 108.75 345.13 110.32 380.67 109.99 M 378.62 109.3 C 381.56 116.33 380.34 122.04 378.2 128.1 M 379.3 110.06 C 380.72 115.16 379.72 118.87 380.58 129.94 M 381.49 131.86 C 359.66 129.64 341.04 131.45 320.1 131.7 M 379.81 129.78 C 359.38 130.26 337.35 129.19 319.81 129.56 M 318.75 130.08 C 319.23 120.51 319.97 114.15 318.3 111.48 M 320.53 130.85 C 320 124.01 319.02 116.65 319.46 109.98" fill="none" stroke="#000000" stroke-linejoin="round" stroke-linecap="round" stroke-miterlimit="10" pointer-events="all"/><g transform="translate(-0.5 -0.5)"><switch><foreignObject style="overflow: visible; text-align: left;" pointer-events="none" width="100%" height="100%" requiredFeatures="http://www.w3.org/TR/SVG11/feature#Extensibility"><div xmlns="http://www.w3.org/1999/xhtml" style="display: flex; align-items: unsafe center; justify-content: unsafe center; width: 58px; height: 1px; padding-top: 120px; margin-left: 321px;"><div style="box-sizing: border-box; font-size: 0; text-align: center; "><div style="display: inline-block; font-size: 12px; font-family: Comic Sans MS; color: #000000; line-height: 1.2; pointer-events: all; background-color: #FFFFCC; white-space: normal; word-wrap: normal; "><font>interval</font></div></div></div></foreignObject><text x="350" y="124" fill="#000000" font-family="Comic Sans MS" font-size="12px" text-anchor="middle">interval</text></switch></g><rect x="320" y="150" width="60" height="20" fill="none" stroke="none" pointer-events="all"/><path d="M 319.72 150.89 C 330.52 147.78 345.88 150.95 381.75 149.74 M 319.21 149.76 C 334.97 150.9 348.78 149.91 379.09 149.74 M 378.16 149.55 C 380.36 155.91 379.84 163.1 381.59 169.24 M 380.6 150.26 C 379.83 154.67 379.85 160.63 379.99 169.29 M 380.54 169.64 C 357.75 171.45 339.47 168.7 319.94 169.3 M 379.87 170.64 C 359.73 170.19 340.03 170.85 319.75 170.6 M 320.03 171.79 C 318.54 163.25 321.55 160.86 320.89 148.28 M 319.74 170.85 C 320.3 165.08 319.82 158.2 320.9 149.97" fill="none" stroke="#000000" stroke-linejoin="round" stroke-linecap="round" stroke-miterlimit="10" pointer-events="all"/><g transform="translate(-0.5 -0.5)"><switch><foreignObject style="overflow: visible; text-align: left;" pointer-events="none" width="100%" height="100%" requiredFeatures="http://www.w3.org/TR/SVG11/feature#Extensibility"><div xmlns="http://www.w3.org/1999/xhtml" style="display: flex; align-items: unsafe center; justify-content: unsafe center; width: 58px; height: 1px; padding-top: 160px; margin-left: 321px;"><div style="box-sizing: border-box; font-size: 0; text-align: center; "><div style="display: inline-block; font-size: 12px; font-family: Comic Sans MS; color: #000000; line-height: 1.2; pointer-events: all; background-color: #FFFFCC; white-space: normal; word-wrap: normal; "><font>ratio</font></div></div></div></foreignObject><text x="350" y="164" fill="#000000" font-family="Comic Sans MS" font-size="12px" text-anchor="middle">ratio</text></switch></g><path d="M 250 100 L 230 100" fill="none" stroke="none" pointer-events="stroke"/><path d="M 248.01 99.59 M 250.18 101.2 C 244.01 101.46 238.43 98.12 229.15 100.28 M 250.23 100.79 C 244.4 99.03 239.27 99.3 230.23 99.83" fill="none" stroke="#000000" stroke-linejoin="round" stroke-linecap="round" stroke-miterlimit="10" pointer-events="stroke"/><rect x="160" y="90" width="70" height="20" fill="none" stroke="none" pointer-events="all"/><path d="M 161.44 88.82 C 175.89 89.78 188.76 91.16 230.16 90.53 M 159.92 90.28 C 179.2 89.91 199.66 89.78 229.93 89.25 M 231.23 90.05 C 228.78 95.07 229.63 105.22 230.37 111.5 M 229.2 90.66 C 230.44 93.69 230.51 98.16 230.81 110 M 228.65 109.22 C 204.14 111.05 178.76 111.22 159.61 108.49 M 229.98 110.35 C 209.65 109.57 189.8 109.68 159.63 110.68 M 158.59 111.23 C 160.77 104.72 160.32 102.27 158.08 89.86 M 160.18 110.84 C 160.91 105.22 159.44 101.3 159.79 89.95" fill="none" stroke="#000000" stroke-linejoin="round" stroke-linecap="round" stroke-miterlimit="10" pointer-events="all"/><g transform="translate(-0.5 -0.5)"><switch><foreignObject style="overflow: visible; text-align: left;" pointer-events="none" width="100%" height="100%" requiredFeatures="http://www.w3.org/TR/SVG11/feature#Extensibility"><div xmlns="http://www.w3.org/1999/xhtml" style="display: flex; align-items: unsafe center; justify-content: unsafe center; width: 68px; height: 1px; padding-top: 100px; margin-left: 161px;"><div style="box-sizing: border-box; font-size: 0; text-align: center; "><div style="display: inline-block; font-size: 12px; font-family: Comic Sans MS; color: #000000; line-height: 1.2; pointer-events: all; background-color: #FFFFCC; white-space: normal; word-wrap: normal; "><font>properties</font></div></div></div></foreignObject><text x="195" y="104" fill="#000000" font-family="Comic Sans MS" font-size="12px" text-anchor="middle">properties</text></switch></g><rect x="80" y="0" width="70" height="20" fill="none" stroke="none" pointer-events="all"/><path d="M 81.16 -1.3 C 96.46 -1.02 107.6 0.62 149.79 1.82 M 79.17 -0.09 C 106.37 -0.23 132.26 -0.36 149.81 0.12 M 148.79 -0.57 C 149.98 5.01 150.19 7.91 151.3 20.27 M 149.53 0.44 C 151.02 6.71 150.5 12.22 149.58 19.47 M 149.48 18.42 C 133.52 17.92 121.07 19.89 80.56 21.89 M 150.02 19.65 C 129.37 20.18 106.11 19.92 80.66 20.78 M 80.31 18.45 C 81.29 13.17 81.7 10.87 78.07 1.03 M 80 20.51 C 79.83 15.82 79.13 12.52 79.19 0.74" fill="none" stroke="#000000" stroke-linejoin="round" stroke-linecap="round" stroke-miterlimit="10" pointer-events="all"/><g transform="translate(-0.5 -0.5)"><switch><foreignObject style="overflow: visible; text-align: left;" pointer-events="none" width="100%" height="100%" requiredFeatures="http://www.w3.org/TR/SVG11/feature#Extensibility"><div xmlns="http://www.w3.org/1999/xhtml" style="display: flex; align-items: unsafe center; justify-content: unsafe center; width: 68px; height: 1px; padding-top: 10px; margin-left: 81px;"><div style="box-sizing: border-box; font-size: 0; text-align: center; "><div style="display: inline-block; font-size: 12px; font-family: Comic Sans MS; color: #000000; line-height: 1.2; pointer-events: all; background-color: #FFFFCC; white-space: normal; word-wrap: normal; "><font>population</font></div></div></div></foreignObject><text x="115" y="14" fill="#000000" font-family="Comic Sans MS" font-size="12px" text-anchor="middle">population</text></switch></g><rect x="95" y="40" width="40" height="20" fill="none" stroke="none" pointer-events="all"/><g transform="translate(-0.5 -0.5)"><switch><foreignObject style="overflow: visible; text-align: left;" pointer-events="none" width="100%" height="100%" requiredFeatures="http://www.w3.org/TR/SVG11/feature#Extensibility"><div xmlns="http://www.w3.org/1999/xhtml" style="display: flex; align-items: unsafe center; justify-content: unsafe center; width: 38px; height: 1px; padding-top: 50px; margin-left: 96px;"><div style="box-sizing: border-box; font-size: 0; text-align: center; "><div style="display: inline-block; font-size: 12px; font-family: Helvetica; color: #000000; line-height: 1.2; pointer-events: all; background-color: #FFFFCC; white-space: normal; word-wrap: normal; "><font face="Comic Sans MS">has</font></div></div></div></foreignObject><text x="115" y="54" fill="#000000" font-family="Helvetica" font-size="12px" text-anchor="middle">has</text></switch></g><path d="M 115 40 L 115 20" fill="none" stroke="none" pointer-events="stroke"/><path d="M 113.23 38.53 M 116.02 40.82 C 116 35.24 113.32 27.73 113.41 18.88 M 115.81 39.66 C 114.6 35.91 115.68 30.66 114.81 20.84" fill="none" stroke="#000000" stroke-linejoin="round" stroke-linecap="round" stroke-miterlimit="10" pointer-events="stroke"/><path d="M 105 60 L 58.03 86.84" fill="none" stroke="none" pointer-events="stroke"/><path d="M 53.47 89.45 L 57.81 82.93 L 58.03 86.84 L 61.28 89.01 Z" fill="none" stroke="none" pointer-events="all"/><path d="M 103.23 58.87 M 103.7 59.99 C 85.13 71.39 67.79 81.97 56.86 87.26 M 105.25 59.47 C 88.47 69.35 69.63 78.95 58.01 86.22" fill="none" stroke="#000000" stroke-linejoin="round" stroke-linecap="round" stroke-miterlimit="10" pointer-events="stroke"/><path d="M 57.93 82.8 C 57.93 82.8 57.93 82.8 57.93 82.8 M 57.93 82.8 C 57.93 82.8 57.93 82.8 57.93 82.8 M 56.05 91.5 C 57.03 90.8 57.58 89.02 58.85 87.6 M 55.55 91.22 C 56.83 90.04 57.49 88.89 58.93 87.57" fill="none" stroke="#000000" stroke-linejoin="round" stroke-linecap="round" stroke-miterlimit="10" pointer-events="all"/><path d="M 52.81 91.29 M 53.48 89.23 C 54.21 87.53 55.92 85.27 57.3 82.9 M 53.31 89.34 C 54.82 87.94 55.99 85.89 57.87 83.26 M 57.61 82.87 C 57.52 83.83 58.29 84.79 58 86.5 M 57.92 83.1 C 57.74 84.24 57.83 85.36 58.19 86.85 M 57.72 86.56 C 58.47 87.12 59.61 87.61 61.18 89.2 M 58.21 86.7 C 59.19 87.35 60.17 88.04 61.38 89.04 M 61.02 88.94 C 58.6 89.79 56.03 89.42 53.02 88.93 M 61.43 88.81 C 59.18 88.9 57.49 89.51 53.74 89.73" fill="none" stroke="#000000" stroke-linejoin="round" stroke-linecap="round" stroke-miterlimit="10" pointer-events="all"/><path d="M 125 60 L 171.97 86.84" fill="none" stroke="none" pointer-events="stroke"/><path d="M 176.53 89.45 L 168.72 89.01 L 171.97 86.84 L 172.19 82.93 Z" fill="none" stroke="none" pointer-events="all"/><path d="M 123.23 59.21 M 125.38 59.15 C 139.53 69.95 155.06 76.51 171.23 88.8 M 124.69 59.29 C 139.48 68.76 153.81 75.34 172.13 86.76" fill="none" stroke="#000000" stroke-linejoin="round" stroke-linecap="round" stroke-miterlimit="10" pointer-events="stroke"/><path d="M 172.28 82.83 C 172.28 82.83 172.28 82.83 172.28 82.83 M 172.28 82.83 C 172.28 82.83 172.28 82.83 172.28 82.83 M 170.99 90.86 C 172.08 89.59 173.02 87.71 174.3 86.44 M 170.92 90.5 C 172.14 88.74 173.5 87.32 174.41 86.47" fill="none" stroke="#000000" stroke-linejoin="round" stroke-linecap="round" stroke-miterlimit="10" pointer-events="all"/><path d="M 176.18 89.81 M 176.16 89.94 C 174 89.8 172.11 89.37 168.02 89.58 M 176.73 89.84 C 173.66 89.07 170.74 89.41 168.33 89.23 M 168.38 89.04 C 169.78 88.58 171.04 87.52 171.8 87.13 M 168.87 88.86 C 169.78 88.47 171 87.72 171.78 86.99 M 171.71 87.14 C 171.72 85.28 171.99 83.77 171.8 82.54 M 171.79 87.03 C 171.86 85.45 172.14 84.35 172.17 82.87 M 171.68 83.52 C 173.39 84.44 175.3 87.31 176.41 89.44 M 172.07 82.69 C 173.68 84.85 174.61 86.44 176.87 89.83" fill="none" stroke="#000000" stroke-linejoin="round" stroke-linecap="round" stroke-miterlimit="10" pointer-events="all"/><rect x="0" y="150" width="70" height="20" fill="none" stroke="none" pointer-events="all"/><path d="M -0.55 151.52 C 12.86 148.78 30.8 151.96 71.82 151.79 M 0.93 150.23 C 19.04 149.43 40.64 150.44 69.91 150.88 M 70.47 150.69 C 69.62 156.91 69.28 163.21 68.26 171.92 M 70.02 149.44 C 68.94 154.25 69.55 159.04 70.62 170.23 M 68.75 169.36 C 47.19 168.91 27.68 168.17 -0.26 171.88 M 70.3 169.93 C 42.36 170.2 15.95 170.58 0.36 169.99 M -1.29 169.04 C 1.46 164.85 1.21 158.41 -0.97 151 M 0.08 170.5 C -1.07 165.17 0.77 160.26 0.4 150.68" fill="none" stroke="#000000" stroke-linejoin="round" stroke-linecap="round" stroke-miterlimit="10" pointer-events="all"/><g transform="translate(-0.5 -0.5)"><switch><foreignObject style="overflow: visible; text-align: left;" pointer-events="none" width="100%" height="100%" requiredFeatures="http://www.w3.org/TR/SVG11/feature#Extensibility"><div xmlns="http://www.w3.org/1999/xhtml" style="display: flex; align-items: unsafe center; justify-content: unsafe center; width: 68px; height: 1px; padding-top: 160px; margin-left: 1px;"><div style="box-sizing: border-box; font-size: 0; text-align: center; "><div style="display: inline-block; font-size: 12px; font-family: Comic Sans MS; color: #000000; line-height: 1.2; pointer-events: all; background-color: #FFFFCC; white-space: normal; word-wrap: normal; "><font>rows</font></div></div></div></foreignObject><text x="35" y="164" fill="#000000" font-family="Comic Sans MS" font-size="12px" text-anchor="middle">rows</text></switch></g><rect x="170" y="150" width="50" height="20" fill="none" stroke="none" pointer-events="all"/><path d="M 168.31 150.48 C 180.31 151.21 189.79 151.5 219.03 150.18 M 169.28 149.49 C 185.86 150.43 200.49 148.88 220.33 150.64 M 220.01 150.94 C 218.82 156.49 219.18 164.27 221.65 169.05 M 219.32 149.64 C 220.45 155.76 220.08 162.8 220.03 169.59 M 221.8 171.14 C 205.4 170.76 188.37 169.47 169.58 169.47 M 220.36 170.78 C 202.2 169.04 183.62 169.15 170.3 169.03 M 169.99 170.76 C 170.78 163.59 168.79 153.12 171.62 151.79 M 169.3 170.5 C 169.23 162.25 169.58 153.81 169.84 150.67" fill="none" stroke="#000000" stroke-linejoin="round" stroke-linecap="round" stroke-miterlimit="10" pointer-events="all"/><g transform="translate(-0.5 -0.5)"><switch><foreignObject style="overflow: visible; text-align: left;" pointer-events="none" width="100%" height="100%" requiredFeatures="http://www.w3.org/TR/SVG11/feature#Extensibility"><div xmlns="http://www.w3.org/1999/xhtml" style="display: flex; align-items: unsafe center; justify-content: unsafe center; width: 48px; height: 1px; padding-top: 160px; margin-left: 171px;"><div style="box-sizing: border-box; font-size: 0; text-align: center; "><div style="display: inline-block; font-size: 12px; font-family: Comic Sans MS; color: #000000; line-height: 1.2; pointer-events: all; background-color: #FFFFCC; white-space: normal; word-wrap: normal; "><font>columns</font></div></div></div></foreignObject><text x="195" y="164" fill="#000000" font-family="Comic Sans MS" font-size="12px" text-anchor="middle">columns</text></switch></g><rect x="80" y="230" width="70" height="20" fill="none" stroke="none" pointer-events="all"/><path d="M 81.16 229.45 C 96.22 230.83 109.68 228.22 150.24 228.57 M 79.63 230.76 C 102.91 230.45 124.79 230.33 150.75 230.39 M 149.55 231.19 C 151.63 236.07 148.67 245.33 151.04 250.19 M 150.61 229.84 C 149.55 237.27 150.2 244.57 149.43 250.94 M 150.85 248.93 C 127.05 248.51 103.93 250.68 79.42 251.07 M 150.41 249.64 C 125.55 250.89 102.29 250.73 80.24 250.08 M 81.27 248.48 C 80.1 246.32 80.38 239.83 80.21 228.59 M 80.52 250.5 C 79.53 243.32 80.38 235.36 79.28 230.66" fill="none" stroke="#000000" stroke-linejoin="round" stroke-linecap="round" stroke-miterlimit="10" pointer-events="all"/><g transform="translate(-0.5 -0.5)"><switch><foreignObject style="overflow: visible; text-align: left;" pointer-events="none" width="100%" height="100%" requiredFeatures="http://www.w3.org/TR/SVG11/feature#Extensibility"><div xmlns="http://www.w3.org/1999/xhtml" style="display: flex; align-items: unsafe center; justify-content: unsafe center; width: 68px; height: 1px; padding-top: 240px; margin-left: 81px;"><div style="box-sizing: border-box; font-size: 0; text-align: center; "><div style="display: inline-block; font-size: 12px; font-family: Comic Sans MS; color: #000000; line-height: 1.2; pointer-events: all; background-color: #FFFFCC; white-space: normal; word-wrap: normal; "><font>table</font></div></div></div></foreignObject><text x="115" y="244" fill="#000000" font-family="Comic Sans MS" font-size="12px" text-anchor="middle">table</text></switch></g><path d="M 35 110 L 35 143.63" fill="none" stroke="none" pointer-events="stroke"/><path d="M 35 148.88 L 31.5 141.88 L 35 143.63 L 38.5 141.88 Z" fill="none" stroke="none" pointer-events="all"/><path d="M 33.23 110.57 M 34.1 109.8 C 36.53 121.54 36.45 137.44 35.97 143.77 M 34.45 110.54 C 35.09 119.37 34.17 129.18 35.86 143.7" fill="none" stroke="#000000" stroke-linejoin="round" stroke-linecap="round" stroke-miterlimit="10" pointer-events="stroke"/><path d="M 31.45 141.93 C 31.45 141.93 31.45 141.93 31.45 141.93 M 31.45 141.93 C 31.45 141.93 31.45 141.93 31.45 141.93 M 33.02 146.28 C 34.04 145.49 34.46 144.47 35.19 144 M 33.15 146.07 C 33.79 145.45 34.24 144.96 35.25 143.85" fill="none" stroke="#000000" stroke-linejoin="round" stroke-linecap="round" stroke-miterlimit="10" pointer-events="all"/><path d="M 35.91 147.33 M 34.67 149.07 C 34.2 146.22 32.78 144.5 31.61 141.7 M 35.06 148.9 C 33.96 147.16 33.45 145.38 31.69 141.67 M 31.36 141.49 C 32.98 142.14 33.5 142.88 35.04 143.32 M 31.44 142 C 32.2 142.19 33.43 142.89 34.96 143.55 M 34.92 143.87 C 36.4 143.21 37.68 142.07 38.51 141.54 M 34.96 143.57 C 36.25 143.24 37.41 142.41 38.36 141.85 M 38.56 141.96 C 37.52 144.39 36.45 147.33 34.67 149.34 M 38.86 142.25 C 37.05 143.8 35.99 145.85 34.85 148.87" fill="none" stroke="#000000" stroke-linejoin="round" stroke-linecap="round" stroke-miterlimit="10" pointer-events="all"/><g transform="translate(-0.5 -0.5)"><switch><foreignObject style="overflow: visible; text-align: left;" pointer-events="none" width="100%" height="100%" requiredFeatures="http://www.w3.org/TR/SVG11/feature#Extensibility"><div xmlns="http://www.w3.org/1999/xhtml" style="display: flex; align-items: unsafe center; justify-content: unsafe center; width: 1px; height: 1px; padding-top: 130px; margin-left: 35px;"><div style="box-sizing: border-box; font-size: 0; text-align: center; "><div style="display: inline-block; font-size: 11px; font-family: Helvetica; color: #000000; line-height: 1.2; pointer-events: all; background-color: #FFFFCC; white-space: nowrap; ">shown as</div></div></div></foreignObject><text x="35" y="133" fill="#000000" font-family="Helvetica" font-size="11px" text-anchor="middle">shown as</text></switch></g><path d="M 195 110 L 195 143.63" fill="none" stroke="none" pointer-events="stroke"/><path d="M 195 148.88 L 191.5 141.88 L 195 143.63 L 198.5 141.88 Z" fill="none" stroke="none" pointer-events="all"/><path d="M 193.23 110.91 M 195.78 108.97 C 193.78 119.13 193.46 130.47 196.39 145.31 M 195.89 110.36 C 194.29 116.71 194.7 125.11 194.03 144.24" fill="none" stroke="#000000" stroke-linejoin="round" stroke-linecap="round" stroke-miterlimit="10" pointer-events="stroke"/><path d="M 191.47 141.91 C 191.47 141.91 191.47 141.91 191.47 141.91 M 191.47 141.91 C 191.47 141.91 191.47 141.91 191.47 141.91 M 192.97 146.3 C 193.55 145.74 193.72 145.31 195.12 143.55 M 193.06 146.08 C 193.8 145.28 194.54 144.47 195.19 143.73" fill="none" stroke="#000000" stroke-linejoin="round" stroke-linecap="round" stroke-miterlimit="10" pointer-events="all"/><path d="M 196.22 149.85 M 194.29 148.21 C 194.36 146.68 192.76 145.11 191.42 142.3 M 194.63 148.61 C 193.49 146.73 192.64 144.18 191.25 141.56 M 191.22 141.59 C 192.13 142.35 193.28 142.63 194.9 143.95 M 191.48 142.07 C 192.48 142.26 193.57 143 195 143.69 M 194.97 143.66 C 196.14 143.42 197 142.26 198.22 141.74 M 194.99 143.51 C 195.97 143.18 197.39 142.45 198.63 141.76 M 198.31 142.62 C 198.11 143.58 196.71 145.06 195.01 148.28 M 198.59 142.21 C 197.51 144.52 195.93 147 194.93 148.97" fill="none" stroke="#000000" stroke-linejoin="round" stroke-linecap="round" stroke-miterlimit="10" pointer-events="all"/><g transform="translate(-0.5 -0.5)"><switch><foreignObject style="overflow: visible; text-align: left;" pointer-events="none" width="100%" height="100%" requiredFeatures="http://www.w3.org/TR/SVG11/feature#Extensibility"><div xmlns="http://www.w3.org/1999/xhtml" style="display: flex; align-items: unsafe center; justify-content: unsafe center; width: 1px; height: 1px; padding-top: 130px; margin-left: 195px;"><div style="box-sizing: border-box; font-size: 0; text-align: center; "><div style="display: inline-block; font-size: 11px; font-family: Helvetica; color: #000000; line-height: 1.2; pointer-events: all; background-color: #FFFFCC; white-space: nowrap; ">shown as</div></div></div></foreignObject><text x="195" y="133" fill="#000000" font-family="Helvetica" font-size="11px" text-anchor="middle">shown as</text></switch></g><rect x="95" y="190" width="40" height="20" fill="none" stroke="none" pointer-events="all"/><g transform="translate(-0.5 -0.5)"><switch><foreignObject style="overflow: visible; text-align: left;" pointer-events="none" width="100%" height="100%" requiredFeatures="http://www.w3.org/TR/SVG11/feature#Extensibility"><div xmlns="http://www.w3.org/1999/xhtml" style="display: flex; align-items: unsafe center; justify-content: unsafe center; width: 38px; height: 1px; padding-top: 200px; margin-left: 96px;"><div style="box-sizing: border-box; font-size: 0; text-align: center; "><div style="display: inline-block; font-size: 12px; font-family: Helvetica; color: #000000; line-height: 1.2; pointer-events: all; background-color: #FFFFCC; white-space: normal; word-wrap: normal; ">in a</div></div></div></foreignObject><text x="115" y="204" fill="#000000" font-family="Helvetica" font-size="12px" text-anchor="middle">in a</text></switch></g><path d="M 70 170 L 95 190" fill="none" stroke="none" pointer-events="stroke"/><path d="M 68.23 170.73 M 69.43 169.72 C 77.14 176.19 82.46 179.39 94.22 191.18 M 70 170.07 C 78.23 176 85.29 182.88 94.06 190.99" fill="none" stroke="#000000" stroke-linejoin="round" stroke-linecap="round" stroke-miterlimit="10" pointer-events="stroke"/><path d="M 170 170 L 135 190" fill="none" stroke="none" pointer-events="stroke"/><path d="M 168.23 171.07 M 171.11 168.88 C 164.46 175.14 155.53 178.87 134.64 188.72 M 169.44 169.88 C 160.22 176.07 151.45 180.33 134.23 189.53" fill="none" stroke="#000000" stroke-linejoin="round" stroke-linecap="round" stroke-miterlimit="10" pointer-events="stroke"/><path d="M 115 210 L 115 223.63" fill="none" stroke="none" pointer-events="stroke"/><path d="M 115 228.88 L 111.5 221.88 L 115 223.63 L 118.5 221.88 Z" fill="none" stroke="none" pointer-events="all"/><path d="M 113.23 211.41 M 114.18 208.67 C 114.18 215.27 115.44 218.17 115.05 223.81 M 115.6 209.79 C 115.11 212.94 114.94 215.41 114.6 223.68" fill="none" stroke="#000000" stroke-linejoin="round" stroke-linecap="round" stroke-miterlimit="10" pointer-events="stroke"/><path d="M 111.38 222.02 C 111.38 222.02 111.38 222.02 111.38 222.02 M 111.38 222.02 C 111.38 222.02 111.38 222.02 111.38 222.02 M 113.65 225.39 C 114.2 225.23 114.49 224.5 115.12 223.76 M 113.71 225.32 C 113.96 225 114.29 224.81 115 223.83" fill="none" stroke="#000000" stroke-linejoin="round" stroke-linecap="round" stroke-miterlimit="10" pointer-events="all"/><path d="M 116.06 228.91 M 115.77 228.67 C 114.4 226.72 112.9 225.46 111.41 221.58 M 114.95 229.23 C 113.93 226.41 112.96 224.44 111.13 222.01 M 111.52 221.55 C 113.06 222.33 113.66 223.12 115.27 223.32 M 111.4 221.8 C 112.57 222.39 113.68 223.01 114.8 223.65 M 115.33 223.88 C 116.2 222.68 117.01 222.11 118.74 222.19 M 115.04 223.55 C 115.8 223.44 116.63 223.09 118.6 221.87 M 118.36 221.85 C 117.85 224.34 115.33 226.77 115.64 228.45 M 118.83 221.93 C 116.7 224.64 115.67 227.31 115.21 229.09" fill="none" stroke="#000000" stroke-linejoin="round" stroke-linecap="round" stroke-miterlimit="10" pointer-events="all"/><path d="M 320 50 L 290 90" fill="none" stroke="none" pointer-events="stroke"/><path d="M 318.23 51.75 M 320.47 51.21 C 313.41 60.99 303.8 70.59 290.5 91.81 M 320.32 49.51 C 308.75 63.44 299.36 77.42 289.58 90.61" fill="none" stroke="#000000" stroke-linejoin="round" stroke-linecap="round" stroke-miterlimit="10" pointer-events="stroke"/><path d="M 320 150 L 290 110" fill="none" stroke="none" pointer-events="stroke"/><path d="M 318.23 148.09 M 318.15 150.37 C 311 137.62 297.55 121.27 290.93 109.35 M 319.76 149.33 C 311.82 138.84 303.48 125.7 289.76 109.15" fill="none" stroke="#000000" stroke-linejoin="round" stroke-linecap="round" stroke-miterlimit="10" pointer-events="stroke"/><path d="M 320 80 L 290 95" fill="none" stroke="none" pointer-events="stroke"/><path d="M 318.23 78.43 M 319.83 79.53 C 310.76 82.4 303.46 86.84 291.35 95.9 M 319.2 79.14 C 312.57 83.66 305.26 88.23 289.93 94.68" fill="none" stroke="#000000" stroke-linejoin="round" stroke-linecap="round" stroke-miterlimit="10" pointer-events="stroke"/><path d="M 320 120 L 290 105" fill="none" stroke="none" pointer-events="stroke"/><path d="M 318.23 118.77 M 321.51 118.7 C 314.54 115.27 309.41 114.58 291.78 103.44 M 320.64 120.95 C 309.26 113.49 296.99 109.37 290.11 105.22" fill="none" stroke="#000000" stroke-linejoin="round" stroke-linecap="round" stroke-miterlimit="10" pointer-events="stroke"/></g><switch><g requiredFeatures="http://www.w3.org/TR/SVG11/feature#Extensibility"/><a transform="translate(0,-5)" xlink:href="https://desk.draw.io/support/solutions/articles/16000042487" target="_blank"><text text-anchor="middle" font-size="10px" x="50%" y="100%">Viewer does not support full SVG 1.1</text></a></switch></svg>