<svg fill="#EBECF0" height="512pt" viewBox="-56 0 512 512" width="512pt" xmlns="http://www.w3.org/2000/svg"><path d="m330 452c-5.519531 0-10 4.480469-10 10s4.480469 10 10 10 10-4.480469 10-10-4.480469-10-10-10zm0 0"/><path d="m150 226c13.035156 0 24.152344-8.359375 28.28125-20h21.71875v136c0 16.574219 13.425781 30 30 30 16.542969 0 30-13.457031 30-30v-136h21.71875c4.128906 11.640625 15.246094 20 28.28125 20 16.542969 0 30-13.457031 30-30v-100c0-16.574219-13.425781-30-30-30-13.035156 0-24.152344 8.359375-28.28125 20h-103.421875c-4.019531-11.390625-14.96875-20-28.296875-20-16.542969 0-30 13.457031-30 30v100c0 16.542969 13.457031 30 30 30zm130-40h-100v-80h100zm-40 156c0 5.515625-4.484375 10-10 10-5.519531 0-10-4.480469-10-10v-136h20zm70-256c5.519531 0 10 4.480469 10 10v100c0 5.515625-4.484375 10-10 10s-10-4.484375-10-10v-100c0-5.515625 4.484375-10 10-10zm-170 10c0-5.515625 4.484375-10 10-10 5.519531 0 10 4.480469 10 10v100c0 5.515625-4.484375 10-10 10s-10-4.484375-10-10zm0 0"/><path d="m210 146h40c5.523438 0 10-4.476562 10-10s-4.476562-10-10-10h-40c-5.523438 0-10 4.476562-10 10s4.476562 10 10 10zm0 0"/><path d="m0 462c0 27.570312 22.429688 50 50 50h340c4.40625 0 8.292969-2.882812 9.570312-7.101562 1.277344-4.214844-.355468-8.769532-4.019531-11.21875-10.773437-7.1875-16.953125-18.734376-16.953125-31.679688 0-12.949219 6.179688-24.496094 16.953125-31.683594.003907 0 .003907-.003906.007813-.007812 2.636718-1.769532 4.402344-4.804688 4.433594-8.199219 0-.039063.007812-.074219.007812-.109375v-412c0-5.523438-4.476562-10-10-10h-340c-27.570312 0-50 22.429688-50 50zm366.929688 30h-316.929688c-16.542969 0-30-13.457031-30-30 0-16.570312 13.429688-30.011719 30-30.011719h316.929688c-5.375 8.914063-8.328126 19.253907-8.328126 30.011719s2.949219 21.085938 8.328126 30zm13.070312-80h-300v-392h300zm-330-392h10v392h-10c-10.964844 0-21.390625 3.515625-30 10.003906v-372.003906c0-16.542969 13.457031-30 30-30zm0 0"/><path d="m288.589844 452h-218.589844c-5.523438 0-10 4.476562-10 10s4.476562 10 10 10h218.589844c5.523437 0 10-4.476562 10-10s-4.476563-10-10-10zm0 0"/></svg>