<svg fill="#EBECF0" id="Capa_1" enable-background="new 0 0 443.294 443.294" height="512" viewBox="0 0 443.294 443.294" width="512" xmlns="http://www.w3.org/2000/svg"><path d="m221.647 443.294c-122.214 0-221.647-99.433-221.647-221.647s99.433-221.647 221.647-221.647 221.647 99.433 221.647 221.647-99.433 221.647-221.647 221.647zm0-415.588c-106.941 0-193.941 87-193.941 193.941s87 193.941 193.941 193.941 193.941-87 193.941-193.941-87-193.941-193.941-193.941z"/><path d="m221.647 332.471c-61.107 0-110.824-49.716-110.824-110.824s49.716-110.824 110.824-110.824c30.046 0 58.158 11.824 79.181 33.293l-19.805 19.372c-15.76-16.099-36.837-24.96-59.376-24.96-45.834 0-83.118 37.284-83.118 83.118s37.284 83.118 83.118 83.118c22.525 0 43.602-8.861 59.376-24.96l19.778 19.4c-21.01 21.456-49.121 33.266-79.154 33.267z"/></svg>