<?xml version="1.0" encoding="UTF-8" standalone="no"?>
<!-- Created with Inkscape (http://www.inkscape.org/) -->

<svg
   xmlns:dc="http://purl.org/dc/elements/1.1/"
   xmlns:cc="http://creativecommons.org/ns#"
   xmlns:rdf="http://www.w3.org/1999/02/22-rdf-syntax-ns#"
   xmlns:svg="http://www.w3.org/2000/svg"
   xmlns="http://www.w3.org/2000/svg"
   xmlns:sodipodi="http://sodipodi.sourceforge.net/DTD/sodipodi-0.dtd"
   xmlns:inkscape="http://www.inkscape.org/namespaces/inkscape"
   version="1.1"
   id="svg45"
   xml:space="preserve"
   width="127.48179"
   height="252.87823"
   viewBox="0 0 127.48179 252.87824"
   sodipodi:docname="asha.svg"
   inkscape:version="0.92.2 5c3e80d, 2017-08-06"><metadata
     id="metadata51"><rdf:RDF><cc:Work
         rdf:about=""><dc:format>image/svg+xml</dc:format><dc:type
           rdf:resource="http://purl.org/dc/dcmitype/StillImage" /><dc:title></dc:title></cc:Work></rdf:RDF></metadata><defs
     id="defs49" /><sodipodi:namedview
     pagecolor="#ffffff"
     bordercolor="#666666"
     borderopacity="1"
     objecttolerance="10"
     gridtolerance="10"
     guidetolerance="10"
     inkscape:pageopacity="0"
     inkscape:pageshadow="2"
     inkscape:window-width="1225"
     inkscape:window-height="792"
     id="namedview47"
     showgrid="false"
     inkscape:zoom="0.96299997"
     inkscape:cx="127.0843"
     inkscape:cy="172.84433"
     inkscape:window-x="0"
     inkscape:window-y="0"
     inkscape:window-maximized="0"
     inkscape:current-layer="g53"
     fit-margin-top="0"
     fit-margin-left="0"
     fit-margin-right="0"
     fit-margin-bottom="0" /><g
     id="g53"
     inkscape:groupmode="layer"
     inkscape:label="ink_ext_XXXXXX"
     transform="matrix(1.3333333,0,0,-1.3333333,-81.638448,621.05156)"><path
       inkscape:connector-curvature="0"
       id="path207"
       style="fill:#2c0f12;fill-opacity:1;fill-rule:nonzero;stroke:none;stroke-width:0.1"
       d="m 156.84,423.342 c 0.07,-26.239 -19.92,-47.272 -48.415,-46.545 -22.6598,0.579 -48.2309,10.297 -46.5852,44.139 1.1891,24.451 12.0032,48.018 46.5852,44.503 27.081,-2.752 48.349,-17.619 48.415,-42.097" /><path
       inkscape:connector-curvature="0"
       id="path209"
       style="fill:#863e47;fill-opacity:1;fill-rule:nonzero;stroke:none;stroke-width:0.1"
       d="m 86.4977,406.461 c 1.5722,-3.375 0.7328,-7.095 -1.8747,-8.31 -2.6078,-1.214 -5.996,0.536 -7.5683,3.912 -1.5719,3.374 -0.7324,7.095 1.875,8.309 2.6078,1.215 5.9961,-0.536 7.568,-3.911" /><path
       inkscape:connector-curvature="0"
       id="path211"
       style="fill:#9e4954;fill-opacity:1;fill-rule:nonzero;stroke:none;stroke-width:0.1"
       d="m 77.8422,402.283 c -0.0426,1.129 0.193,2.182 0.7066,3.16 0.3305,1.016 0.8961,1.896 1.6953,2.639 0.8493,0.849 1.9372,1.503 3.1028,1.915 -1.4344,0.823 -3.0344,1.019 -4.4172,0.375 -2.6074,-1.214 -3.4469,-4.935 -1.875,-8.309 0.2953,-0.634 0.6539,-1.209 1.0598,-1.72 -0.15,0.64 -0.2434,1.292 -0.2723,1.94" /><path
       inkscape:connector-curvature="0"
       id="path213"
       style="fill:#863e47;fill-opacity:1;fill-rule:nonzero;stroke:none;stroke-width:0.1"
       d="m 131.055,406.461 c -1.572,-3.375 -0.733,-7.095 1.875,-8.31 2.608,-1.214 5.996,0.536 7.568,3.912 1.572,3.374 0.732,7.095 -1.875,8.309 -2.608,1.215 -5.996,-0.536 -7.568,-3.911" /><path
       inkscape:connector-curvature="0"
       id="path215"
       style="fill:#9e4954;fill-opacity:1;fill-rule:nonzero;stroke:none;stroke-width:0.1"
       d="m 139.71,402.283 c 0.043,1.129 -0.192,2.182 -0.706,3.16 -0.331,1.016 -0.896,1.896 -1.695,2.639 -0.85,0.849 -1.937,1.503 -3.103,1.915 1.435,0.823 3.034,1.019 4.417,0.375 2.607,-1.214 3.447,-4.935 1.875,-8.309 -0.295,-0.634 -0.654,-1.209 -1.06,-1.72 0.15,0.64 0.244,1.292 0.272,1.94" /><path
       inkscape:connector-curvature="0"
       id="path217"
       style="fill:#974651;fill-opacity:1;fill-rule:nonzero;stroke:none;stroke-width:0.1"
       d="m 148.838,346.443 c -5.537,13.044 -30.39,21.792 -30.39,21.792 l -9.862,0.732 h -0.269 l -9.8096,-1.238 c 0,0 -23.8984,-8.176 -30.5386,-20.604 -8.3434,-15.618 -9.2231,-43.074 -1.0512,-70.995 h 41.3994 0.269 41.4 c 8.172,27.921 5.77,54.015 -1.148,70.313" /><path
       inkscape:connector-curvature="0"
       id="path219"
       style="fill:#f8d661;fill-opacity:1;fill-rule:nonzero;stroke:none;stroke-width:0.1"
       d="m 144.717,347.42 c 0.44,1.395 0.944,2.743 1.493,4.06 -10.014,9.636 -19.339,15.776 -27.366,17.5 -4.915,1.057 -15.248,0.654 -20.0983,-0.666 -8.6519,-2.356 -20.6984,-8.434 -30.0238,-19.104 0.6613,-1.598 1.3504,-3.298 1.7617,-4.944 2.2426,-8.971 2.4242,-18.301 3.7844,-27.446 1.9996,-13.441 2.9972,-26.392 2.5383,-40.69 h 61.9097 c -0.093,12.939 -0.186,24.772 1.098,37.455 1.151,11.365 1.459,22.92 4.903,33.835" /><path
       inkscape:connector-curvature="0"
       id="path221"
       style="fill:#974651;fill-opacity:1;fill-rule:nonzero;stroke:none;stroke-width:0.1"
       d="m 100.494,380.114 c -0.141,0.064 -1.7874,-14.347 -3.1573,-16.39 0,0 13.1943,-4.597 22.8993,0.766 0,0 -4.407,15.141 -2.773,15.625 0,0 -11.57,-2.447 -16.969,-0.001" /><path
       inkscape:connector-curvature="0"
       id="path223"
       style="fill:#f79443;fill-opacity:1;fill-rule:nonzero;stroke:none;stroke-width:0.1"
       d="m 97.3367,363.724 c 0,0 -3.4488,2.075 0.7867,2.272 0,0 -0.2328,-1.368 -0.7867,-2.272" /><path
       inkscape:connector-curvature="0"
       id="path225"
       style="fill:#f79443;fill-opacity:1;fill-rule:nonzero;stroke:none;stroke-width:0.1"
       d="m 120.236,364.49 c 0,0 3.553,2.25 -0.683,2.447 0,0 0.262,-1.582 0.683,-2.447" /><path
       inkscape:connector-curvature="0"
       id="path227"
       style="fill:#803b44;fill-opacity:1;fill-rule:nonzero;stroke:none;stroke-width:0.1"
       d="m 111.256,375.603 c 2.078,0.135 4.087,0.582 6.041,1.212 -0.274,1.831 -0.3,3.162 0.166,3.3 0,0 -11.57,-2.447 -16.969,-0.001 -0.036,0.016 -0.167,-0.887 -0.365,-2.279 3.266,-1.822 7.668,-2.458 11.127,-2.232" /><path
       inkscape:connector-curvature="0"
       id="path229"
       style="fill:#974651;fill-opacity:1;fill-rule:nonzero;stroke:none;stroke-width:0.1"
       d="m 137.261,412.018 c -3.469,-18.291 -8.512,-33.709 -28.261,-33.709 -19.75,0 -25.2016,15.345 -28.2621,33.709 -3.4055,20.43 12.6531,33.709 28.2621,33.709 15.608,0 32.006,-13.96 28.261,-33.709" /><path
       inkscape:connector-curvature="0"
       id="path231"
       style="fill:#803b44;fill-opacity:1;fill-rule:nonzero;stroke:none;stroke-width:0.1"
       d="m 108.356,399.265 c 0,0 -1.053,0.405 -2.723,1.185 -0.215,0.108 -0.449,0.237 -0.68,0.438 -0.229,0.196 -0.452,0.493 -0.557,0.844 -0.215,0.715 -0.018,1.459 0.341,2.076 0.374,0.625 0.875,1.08 1.258,1.532 0.382,0.434 0.638,0.908 0.833,1.487 0.376,1.153 0.41,2.446 0.496,3.642 0.083,1.199 0.187,2.279 0.289,3.185 0.204,1.813 0.401,2.933 0.401,2.933 0,0 0.171,-1.124 0.333,-2.941 0.082,-0.909 0.161,-1.991 0.216,-3.191 0.042,-1.191 0.136,-2.589 -0.341,-4.09 -0.237,-0.736 -0.671,-1.461 -1.191,-1.974 -0.499,-0.508 -0.969,-0.879 -1.258,-1.262 -0.29,-0.379 -0.446,-0.818 -0.402,-1.154 0.023,-0.332 0.306,-0.639 0.651,-0.903 1.451,-1.076 2.334,-1.807 2.334,-1.807" /><path
       inkscape:connector-curvature="0"
       id="path233"
       style="fill:#803b44;fill-opacity:1;fill-rule:nonzero;stroke:none;stroke-width:0.1"
       d="m 116.678,393.28 c 0,0 -0.781,-0.719 -2.122,-1.592 -0.676,-0.437 -1.472,-0.909 -2.416,-1.354 -0.952,-0.437 -2.131,-0.871 -3.572,-0.929 -0.716,-0.033 -1.459,0.071 -2.08,0.23 -0.625,0.166 -1.167,0.384 -1.651,0.609 -0.962,0.456 -1.694,0.924 -2.335,1.286 -0.634,0.369 -1.181,0.629 -1.598,0.776 -0.209,0.086 -0.377,0.125 -0.495,0.164 -0.12,0.037 -0.183,0.057 -0.183,0.057 0,0 0.053,0.037 0.155,0.109 0.104,0.067 0.26,0.181 0.478,0.281 0.43,0.223 1.127,0.454 1.991,0.54 0.86,0.096 1.872,0.055 2.85,-0.024 0.456,-0.034 0.933,-0.069 1.427,-0.105 0.46,-0.019 0.853,-0.029 1.299,-0.01 0.887,0.031 1.875,0.136 2.866,0.21 1.001,0.079 1.955,0.087 2.75,0.049 1.598,-0.072 2.636,-0.297 2.636,-0.297" /><path
       inkscape:connector-curvature="0"
       id="path235"
       style="fill:#784048;fill-opacity:1;fill-rule:nonzero;stroke:none;stroke-width:0.1"
       d="m 114.427,410.824 c 0.009,0.024 0.009,0.182 0.181,0.749 0.096,0.293 0.228,0.71 0.554,1.359 0.292,0.618 0.992,1.628 1.924,2.359 0.921,0.748 2.013,1.28 3.095,1.633 0.543,0.178 1.088,0.315 1.622,0.424 0.53,0.106 1.184,0.227 1.999,0.252 0.789,0.03 1.862,-0.08 2.81,-0.481 0.921,-0.385 1.599,-0.91 2.119,-1.381 1.036,-0.977 1.522,-1.688 1.915,-2.084 -0.008,0.012 -0.096,-0.186 -0.453,-0.392 -0.35,-0.212 -1.042,-0.329 -1.938,-0.271 -0.877,0.042 -1.985,0.24 -2.834,0.043 -0.81,-0.209 -1.215,-0.743 -2.039,-1.279 -0.86,-0.56 -1.618,-1.065 -2.093,-1.412 -0.241,-0.175 -0.422,-0.304 -0.587,-0.384 -0.17,-0.086 -0.299,-0.091 -0.585,-0.215 -0.551,-0.226 -1.485,-0.726 -2.553,-0.705 -1.08,-0.006 -2.166,0.613 -3.137,1.785" /><path
       inkscape:connector-curvature="0"
       id="path237"
       style="fill:#784048;fill-opacity:1;fill-rule:nonzero;stroke:none;stroke-width:0.1"
       d="m 100.735,409.089 c 0,0 -0.158,0.069 -0.438,0.235 -0.281,0.164 -0.674,0.442 -1.0845,0.808 -0.4156,0.364 -0.8375,0.807 -1.2375,1.165 -0.4137,0.367 -0.6957,0.537 -1.2199,0.777 -0.5086,0.228 -1.1863,0.448 -2.0301,0.656 -0.8184,0.195 -1.9617,0.466 -2.7094,0.567 -0.4008,0.047 -0.6765,0.068 -0.9957,0.023 -0.334,-0.046 -0.7683,-0.183 -1.3011,-0.411 -0.5329,-0.225 -1.1665,-0.544 -1.9227,-0.834 -0.75,-0.291 -1.6887,-0.542 -2.6648,-0.522 0,0 0.0882,0.049 0.2531,0.14 0.1644,0.084 0.3898,0.231 0.6511,0.422 0.5286,0.387 1.0958,1.017 1.6399,1.759 0.5617,0.735 1.1078,1.63 2.1598,2.406 0.5207,0.384 1.2179,0.694 1.9152,0.856 0.7004,0.172 1.4023,0.23 2.0531,0.253 1.2547,0.043 2.5477,-0.02 3.8695,-0.445 0.6536,-0.213 1.302,-0.511 1.8895,-0.928 0.5805,-0.406 1.1185,-0.96 1.4465,-1.488 0.646,-1.065 0.663,-1.852 0.554,-2.653 -0.137,-0.801 -0.351,-1.717 -0.828,-2.786" /><path
       inkscape:connector-curvature="0"
       id="path239"
       style="fill:#803b44;fill-opacity:1;fill-rule:nonzero;stroke:none;stroke-width:0.1"
       d="m 131.159,413.974 c 0,0 -0.168,0.155 -0.484,0.444 -0.323,0.28 -0.811,0.68 -1.486,1.115 -1.336,0.863 -3.495,1.89 -6.344,2.028 0,0 0.557,0.037 1.399,-0.031 0.84,-0.067 1.963,-0.271 3.033,-0.682 1.076,-0.396 2.084,-0.996 2.783,-1.567 0.704,-0.572 1.098,-1.106 1.099,-1.307" /><path
       inkscape:connector-curvature="0"
       id="path241"
       style="fill:#803b44;fill-opacity:1;fill-rule:nonzero;stroke:none;stroke-width:0.1"
       d="m 114.254,408.043 c 0,0 0.078,0.018 0.228,0.052 0.149,0.032 0.375,0.068 0.668,0.077 0.587,0.027 1.433,-0.109 2.405,-0.465 0.976,-0.349 2.094,-0.866 3.473,-1.225 1.369,-0.371 2.965,-0.647 4.732,-0.689 0,0 -0.695,-0.047 -1.747,0.008 -1.05,0.053 -2.457,0.244 -3.833,0.64 -1.389,0.385 -2.675,1.028 -3.757,1.308 -1.08,0.311 -1.939,0.206 -2.169,0.294" /><path
       inkscape:connector-curvature="0"
       id="path243"
       style="fill:#803b44;fill-opacity:1;fill-rule:nonzero;stroke:none;stroke-width:0.1"
       d="m 86.1063,414.89 c 0,0 0.1824,0.157 0.5363,0.431 0.3574,0.269 0.8988,0.643 1.6344,1.021 1.4488,0.753 3.7894,1.504 6.4968,1.175 0,0 -0.5312,0.027 -1.3343,-0.031 -0.8024,-0.058 -1.8754,-0.23 -2.9254,-0.57 -1.0547,-0.324 -2.0739,-0.814 -2.8555,-1.246 -0.7836,-0.43 -1.3348,-0.801 -1.5523,-0.78" /><path
       inkscape:connector-curvature="0"
       id="path245"
       style="fill:#803b44;fill-opacity:1;fill-rule:nonzero;stroke:none;stroke-width:0.1"
       d="m 102.793,407.511 c 0,0 -0.066,0.018 -0.192,0.053 -0.127,0.034 -0.32,0.074 -0.577,0.098 -0.513,0.052 -1.293,-0.015 -2.2713,-0.288 -0.975,-0.263 -2.1668,-0.689 -3.5742,-0.903 -1.4012,-0.229 -3.0062,-0.315 -4.7113,-0.127 0,0 0.6738,-0.037 1.6953,0.009 1.0207,0.045 2.3871,0.207 3.7445,0.536 1.352,0.31 2.7028,0.87 3.847,0.998 1.151,0.155 1.941,-0.183 2.039,-0.376" /><path
       inkscape:connector-curvature="0"
       id="path247"
       style="fill:#803b44;fill-opacity:1;fill-rule:nonzero;stroke:none;stroke-width:0.1"
       d="m 100.474,394.88 c 0,0 0.356,0.155 1.034,0.408 0.679,0.249 1.682,0.592 2.983,0.912 0.325,0.079 0.669,0.158 1.03,0.233 0.363,0.059 0.724,0.185 1.201,0.155 0.239,-0.016 0.473,-0.138 0.638,-0.248 0.176,-0.111 0.327,-0.196 0.521,-0.203 0.39,-0.023 0.812,0.208 1.267,0.282 0.932,0.15 1.842,-0.244 2.768,-0.66 0.938,-0.425 1.922,-0.871 2.948,-1.336 0,0 -0.836,0.285 -2.104,0.717 -0.632,0.207 -1.385,0.513 -2.129,0.709 -0.374,0.096 -0.754,0.149 -1.115,0.116 -0.184,-0.018 -0.344,-0.05 -0.537,-0.12 -0.198,-0.068 -0.421,-0.166 -0.703,-0.23 -0.269,-0.071 -0.66,-0.066 -0.951,0.077 -0.274,0.131 -0.426,0.248 -0.535,0.271 -0.242,0.079 -0.724,-0.061 -1.141,-0.141 -0.847,-0.178 -1.648,-0.37 -2.357,-0.54 -1.417,-0.338 -2.472,-0.587 -2.818,-0.402" /><path
       inkscape:connector-curvature="0"
       id="path249"
       style="fill:#edf0e0;fill-opacity:1;fill-rule:nonzero;stroke:none;stroke-width:0.1"
       d="m 117.888,412.971 c -1.238,-1.088 -2.117,-2.496 -2.502,-4.008 1.422,0.473 2.929,-0.311 4.377,-0.713 2.804,-0.779 5.921,-0.079 8.415,1.304 1.002,0.555 1.998,1.316 2.189,2.354 0.026,0.144 0.034,0.3 -0.042,0.43 -0.08,0.136 -0.239,0.219 -0.389,0.294 -2,0.985 -4.203,1.707 -6.484,1.811 -2.282,0.104 -4.651,-0.454 -6.385,-1.78" /><path
       inkscape:connector-curvature="0"
       id="path251"
       style="fill:#95bda2;fill-opacity:1;fill-rule:nonzero;stroke:none;stroke-width:0.1"
       d="m 125.823,413.204 c 0,-1.728 -1.401,-3.129 -3.13,-3.129 -1.728,0 -3.13,1.401 -3.13,3.129 0,1.729 1.402,1.467 3.13,1.467 1.729,0 3.13,0.262 3.13,-1.467" /><path
       inkscape:connector-curvature="0"
       id="path253"
       style="fill:#190b0d;fill-opacity:1;fill-rule:nonzero;stroke:none;stroke-width:0.1"
       d="m 122.922,414.455 c -0.688,0.251 -1.53,-0.267 -1.652,-0.989 -0.122,-0.722 0.463,-1.472 1.189,-1.566 0.727,-0.094 1.467,0.447 1.637,1.159 0.052,0.22 0.055,0.458 -0.03,0.668 -0.275,0.684 -1.22,0.71 -1.953,0.62" /><path
       inkscape:connector-curvature="0"
       id="path255"
       style="fill:#2b1c1e;fill-opacity:1;fill-rule:nonzero;stroke:none;stroke-width:0.1"
       d="m 134.111,413.974 c -0.014,0.018 -0.174,-0.272 -0.646,-0.624 -0.46,-0.354 -1.272,-0.762 -2.347,-0.864 -1.071,-0.129 -2.353,0.017 -3.694,0.375 -0.665,0.17 -1.373,0.424 -2.036,0.671 -0.671,0.247 -1.295,0.43 -1.981,0.489 -1.372,0.129 -2.72,-0.177 -3.839,-0.696 -1.128,-0.522 -2.048,-1.241 -2.754,-1.921 -0.706,-0.684 -1.203,-1.329 -1.518,-1.795 -0.317,-0.466 -0.465,-0.748 -0.465,-0.748 0,0 0.059,0.312 0.256,0.855 0.198,0.542 0.548,1.316 1.157,2.175 0.609,0.854 1.488,1.807 2.73,2.552 1.234,0.74 2.851,1.233 4.572,1.071 0.859,-0.07 1.69,-0.35 2.368,-0.647 0.688,-0.3 1.285,-0.572 1.899,-0.802 1.206,-0.461 2.328,-0.767 3.287,-0.829 0.962,-0.088 1.739,0.1 2.247,0.317 0.515,0.212 0.753,0.44 0.764,0.421" /><path
       inkscape:connector-curvature="0"
       id="path257"
       style="fill:#edf0e0;fill-opacity:1;fill-rule:nonzero;stroke:none;stroke-width:0.1"
       d="m 99.8645,412.971 c 1.2375,-1.088 2.1165,-2.496 2.5015,-4.008 -1.421,0.473 -2.9289,-0.311 -4.3773,-0.713 -2.8035,-0.779 -5.9203,-0.079 -8.4145,1.304 -1.0019,0.555 -1.9984,1.316 -2.189,2.354 -0.0262,0.144 -0.0344,0.3 0.0421,0.43 0.0801,0.136 0.2383,0.219 0.3895,0.294 1.9992,0.985 4.202,1.707 6.4836,1.811 2.2816,0.104 4.6504,-0.454 6.3846,-1.78" /><path
       inkscape:connector-curvature="0"
       id="path259"
       style="fill:#95bda2;fill-opacity:1;fill-rule:nonzero;stroke:none;stroke-width:0.1"
       d="m 91.9285,413.204 c 0,-1.728 1.4016,-3.129 3.1301,-3.129 1.7285,0 3.1301,1.401 3.1301,3.129 0,1.729 -1.4016,1.467 -3.1301,1.467 -1.7285,0 -3.1301,0.262 -3.1301,-1.467" /><path
       inkscape:connector-curvature="0"
       id="path261"
       style="fill:#190b0d;fill-opacity:1;fill-rule:nonzero;stroke:none;stroke-width:0.1"
       d="m 94.8297,414.455 c 0.6879,0.251 1.5301,-0.267 1.6527,-0.989 0.1223,-0.722 -0.4636,-1.472 -1.1898,-1.566 -0.7262,-0.094 -1.4664,0.447 -1.6363,1.159 -0.0524,0.22 -0.0555,0.458 0.0292,0.668 0.2758,0.684 1.2208,0.71 1.9532,0.62" /><path
       inkscape:connector-curvature="0"
       id="path263"
       style="fill:#2c0f12;fill-opacity:1;fill-rule:nonzero;stroke:none;stroke-width:0.1"
       d="m 96.4984,447.572 c 0,0 2.6266,-16.046 20.1796,-12.258 0,0 2.829,-8.853 12.411,-7.321 0,0 9.871,-9.364 16.257,-3.745 l -8.681,21.479 c 0,0 -21.425,9.421 -22.332,9.421 -0.907,0 -17.8346,-7.576 -17.8346,-7.576" /><path
       inkscape:connector-curvature="0"
       id="path265"
       style="fill:#2c0f12;fill-opacity:1;fill-rule:nonzero;stroke:none;stroke-width:0.1"
       d="m 106.868,442.829 c -1.062,0.115 -5.23,6.291 -6.642,-5.983 -1.2287,-10.683 -14.9873,-10.172 -14.9873,-10.172 0,0 -5.8633,-12.495 -15.5672,-8.045 l 2.8945,20.062 20.7543,12.627 13.5477,-8.489" /><path
       inkscape:connector-curvature="0"
       id="path267"
       style="fill:#974651;fill-opacity:1;fill-rule:nonzero;stroke:none;stroke-width:0.1"
       d="m 100.616,433.498 c 0,0 0.463,4.641 -1.7066,6.855 0,0 3.6356,-2.378 5.9296,-4.188 l -4.223,-2.667" /><path
       inkscape:connector-curvature="0"
       id="path269"
       style="fill:#381a1d;fill-opacity:1;fill-rule:nonzero;stroke:none;stroke-width:0.1"
       d="m 133.323,418.048 c 0,0 -0.095,0.027 -0.277,0.077 -0.178,0.055 -0.444,0.127 -0.781,0.209 -0.676,0.166 -1.644,0.362 -2.821,0.469 -1.175,0.112 -2.556,0.137 -4.066,0.042 -1.506,-0.089 -3.155,-0.304 -4.915,-0.562 -1.758,-0.261 -3.143,-0.344 -4.124,-0.205 -0.981,0.133 -1.549,0.474 -1.661,0.931 -0.112,0.456 0.23,1.027 1.077,1.587 0.849,0.553 2.209,1.115 4.165,1.406 1.954,0.288 3.893,0.289 5.635,0.01 1.74,-0.27 3.256,-0.805 4.433,-1.41 1.183,-0.6 2.023,-1.263 2.556,-1.751 0.268,-0.245 0.461,-0.445 0.587,-0.588 0.126,-0.14 0.192,-0.215 0.192,-0.215" /><path
       inkscape:connector-curvature="0"
       id="path271"
       style="fill:#381a1d;fill-opacity:1;fill-rule:nonzero;stroke:none;stroke-width:0.1"
       d="m 84.657,418.048 c 0,0 0.0664,0.075 0.1922,0.215 0.1258,0.143 0.3196,0.343 0.5871,0.588 0.5328,0.488 1.3735,1.151 2.5563,1.751 1.1769,0.605 2.6929,1.14 4.4328,1.41 1.7426,0.279 3.6816,0.278 5.6351,-0.01 1.9555,-0.291 3.3165,-0.853 4.1645,-1.406 0.848,-0.56 1.189,-1.131 1.078,-1.587 -0.112,-0.457 -0.681,-0.798 -1.661,-0.931 -0.982,-0.139 -2.3662,-0.056 -4.1248,0.205 -1.7594,0.258 -3.4086,0.473 -4.9152,0.562 -1.5098,0.095 -2.8907,0.07 -4.0653,-0.042 -1.1769,-0.107 -2.1449,-0.303 -2.8211,-0.469 -0.3371,-0.082 -0.6027,-0.154 -0.7808,-0.209 -0.1821,-0.05 -0.2778,-0.077 -0.2778,-0.077" /><path
       inkscape:connector-curvature="0"
       id="path273"
       style="fill:#2b1c1e;fill-opacity:1;fill-rule:nonzero;stroke:none;stroke-width:0.1"
       d="m 83.5043,413.974 c 0.0113,0.019 0.2496,-0.209 0.7645,-0.421 0.5078,-0.217 1.2855,-0.405 2.2468,-0.317 0.959,0.062 2.0813,0.368 3.2871,0.829 0.6137,0.23 1.211,0.502 1.8985,0.802 0.6781,0.297 1.509,0.577 2.3679,0.647 1.7219,0.162 3.3387,-0.331 4.5727,-1.071 1.2414,-0.745 2.1212,-1.698 2.7302,-2.552 0.608,-0.859 0.959,-1.633 1.156,-2.175 0.198,-0.543 0.257,-0.855 0.257,-0.855 0,0 -0.149,0.282 -0.465,0.748 -0.316,0.466 -0.813,1.111 -1.519,1.795 -0.705,0.68 -1.6256,1.399 -2.7537,1.921 -1.1192,0.519 -2.4672,0.825 -3.8383,0.696 -0.686,-0.059 -1.3102,-0.242 -1.9817,-0.489 -0.6628,-0.247 -1.371,-0.501 -2.0359,-0.671 -1.3406,-0.358 -2.623,-0.504 -3.6937,-0.375 -1.0747,0.102 -1.8868,0.51 -2.3473,0.864 -0.4719,0.352 -0.6316,0.642 -0.6461,0.624" /><path
       inkscape:connector-curvature="0"
       id="path275"
       style="fill:#f89c4f;fill-opacity:1;fill-rule:nonzero;stroke:none;stroke-width:0.1"
       d="m 125.45,311.739 c 0,0 -0.6,0.094 -1.682,0.265 -1.084,0.17 -2.65,0.425 -4.589,0.685 -3.86,0.502 -9.304,1.133 -15.131,-0.031 -2.913,-0.565 -5.6656,-1.331 -8.2304,-1.806 -2.5656,-0.484 -4.9149,-0.676 -6.8821,-0.71 -1.9687,-0.035 -3.5582,0.076 -4.6503,0.181 -1.0922,0.109 -1.6918,0.201 -1.6918,0.201 0,0 0.6062,-0.03 1.6996,-0.084 1.0937,-0.035 2.6789,-0.051 4.6269,0.077 1.9473,0.127 4.2563,0.409 6.7719,0.955 2.5195,0.537 5.2532,1.348 8.2152,1.923 5.976,1.189 11.499,0.351 15.331,-0.335 1.932,-0.354 3.481,-0.702 4.552,-0.941 1.067,-0.244 1.66,-0.38 1.66,-0.38" /><path
       inkscape:connector-curvature="0"
       id="path277"
       style="fill:#f89c4f;fill-opacity:1;fill-rule:nonzero;stroke:none;stroke-width:0.1"
       d="m 128.02,307.353 c 0,0 -0.408,0.087 -1.141,0.246 -0.732,0.167 -1.799,0.373 -3.119,0.598 -2.639,0.455 -6.312,0.886 -10.384,0.967 -4.073,0.072 -7.76,-0.222 -10.414,-0.578 -1.327,-0.175 -2.401,-0.341 -3.1382,-0.481 -0.7383,-0.131 -1.1496,-0.204 -1.1496,-0.204 0,0 0.402,0.114 1.1238,0.318 0.723,0.209 1.782,0.468 3.102,0.738 2.638,0.543 6.36,1.03 10.49,0.957 4.129,-0.081 7.83,-0.708 10.445,-1.349 1.31,-0.319 2.358,-0.618 3.074,-0.853 0.714,-0.231 1.111,-0.359 1.111,-0.359" /><path
       inkscape:connector-curvature="0"
       id="path279"
       style="fill:#fbd04a;fill-opacity:1;fill-rule:nonzero;stroke:none;stroke-width:0.1"
       d="m 86.1602,392.315 c 0,0 0.0117,-0.078 0.0336,-0.226 0.0132,-0.15 0.023,-0.38 -0.0344,-0.676 -0.1028,-0.587 -0.5125,-1.475 -1.4836,-2.155 -0.9766,-0.71 -2.507,-0.973 -3.9848,-0.684 -0.748,0.141 -1.4621,0.376 -2.1949,0.726 -0.7289,0.362 -1.5043,0.852 -2.1508,1.661 -0.6598,0.789 -1.0262,1.928 -0.9805,2.892 0.0278,0.974 0.3278,1.791 0.6883,2.467 0.7422,1.35 1.7504,2.223 2.6926,2.778 0.9484,0.55 1.8258,0.719 2.4027,0.745 0.5829,0.024 0.8868,-0.05 0.8868,-0.05 0,0 -0.2969,-0.118 -0.7516,-0.398 -0.4523,-0.282 -1.041,-0.752 -1.577,-1.448 -0.5285,-0.686 -1.048,-1.618 -1.3242,-2.619 -0.1363,-0.495 -0.1972,-1.001 -0.1469,-1.421 0.054,-0.428 0.1793,-0.724 0.4575,-1.079 0.5429,-0.7 1.7281,-1.394 2.6855,-1.817 0.9715,-0.423 1.8856,-0.57 2.6453,-0.402 0.7844,0.165 1.3864,0.602 1.7075,0.995 0.1671,0.196 0.2699,0.379 0.3355,0.507 0.0609,0.134 0.0934,0.204 0.0934,0.204" /><path
       inkscape:connector-curvature="0"
       id="path281"
       style="fill:#fbd04a;fill-opacity:1;fill-rule:nonzero;stroke:none;stroke-width:0.1"
       d="m 131.783,392.315 c 0,0 -0.011,-0.078 -0.033,-0.226 -0.013,-0.15 -0.023,-0.38 0.034,-0.676 0.103,-0.587 0.513,-1.475 1.484,-2.155 0.977,-0.71 2.507,-0.973 3.985,-0.684 0.748,0.141 1.462,0.376 2.195,0.726 0.728,0.362 1.504,0.852 2.151,1.661 0.659,0.789 1.026,1.928 0.98,2.892 -0.028,0.974 -0.328,1.791 -0.688,2.467 -0.743,1.35 -1.751,2.223 -2.693,2.778 -0.948,0.55 -1.826,0.719 -2.403,0.745 -0.583,0.024 -0.887,-0.05 -0.887,-0.05 0,0 0.298,-0.118 0.752,-0.398 0.453,-0.282 1.041,-0.752 1.577,-1.448 0.529,-0.686 1.048,-1.618 1.325,-2.619 0.135,-0.495 0.197,-1.001 0.146,-1.421 -0.054,-0.428 -0.179,-0.724 -0.457,-1.079 -0.543,-0.7 -1.728,-1.394 -2.686,-1.817 -0.972,-0.423 -1.886,-0.57 -2.645,-0.402 -0.784,0.165 -1.387,0.602 -1.708,0.995 -0.167,0.196 -0.27,0.379 -0.336,0.507 -0.06,0.134 -0.093,0.204 -0.093,0.204" /></g></svg>