<?xml version="1.0" encoding="iso-8859-1"?>
<!-- Generator: Adobe Illustrator 19.0.0, SVG Export Plug-In . SVG Version: 6.00 Build 0)  -->
<svg fill="#EBECF0" version="1.1" id="Layer_1" xmlns="http://www.w3.org/2000/svg" xmlns:xlink="http://www.w3.org/1999/xlink" x="0px" y="0px"
	 viewBox="0 0 502 502" style="enable-background:new 0 0 502 502;" xml:space="preserve">
<g>
	<g>
		<g>
			<path d="M428.483,73.516C381.076,26.108,318.045,0,251,0C183.956,0,120.924,26.108,73.516,73.516S0,183.956,0,251
				s26.108,130.076,73.516,177.484C120.924,475.892,183.956,502,251,502c67.045,0,130.076-26.108,177.483-73.516
				C475.892,381.076,502,318.044,502,251S475.892,120.924,428.483,73.516z M251,482C123.626,482,20,378.374,20,251
				S123.626,20,251,20s231,103.626,231,231S378.374,482,251,482z"/>
			<path d="M251,41.36c-71.131,0-129,57.869-129,129c0,19.299,15.701,35,35,35s35-15.701,35-35c0-32.533,26.467-59,59-59
				c32.532,0,59,26.467,59,59c0,32.809-26.468,59.5-59,59.5c-19.299,0-35,15.701-35,35v68.781c0,19.299,15.701,35,35,35
				s35-15.702,35-34.999v-38.638c25.275-7.181,48.08-22.162,64.871-42.763C369.655,229.195,380,200.116,380,170.36
				C380,99.229,322.131,41.36,251,41.36z M273.893,277.422c-4.605,0.992-7.893,5.064-7.893,9.775v46.443c0,8.271-6.729,15-15,15
				s-15-6.729-15-15v-68.781c0-8.271,6.729-15,15-15c43.561,0,79-35.664,79-79.5c0-43.561-35.439-79-79-79c-43.561,0-79,35.44-79,79
				c0,8.271-6.729,15-15,15s-15-6.729-15-15c0-60.103,48.897-109,109-109c60.103,0,109,48.897,109,109
				C360,221.641,323.787,266.667,273.893,277.422z"/>
			<path d="M251,386.641c-19.299,0-35,15.701-35,35v4c0,19.299,15.701,35,35,35s35-15.702,35-35v-4
				C286,402.342,270.299,386.641,251,386.641z M266,425.641c0,8.271-6.729,15-15,15s-15-6.729-15-15v-4c0-8.271,6.729-15,15-15
				s15,6.729,15,15V425.641z"/>
			<path d="M59.077,290.972C56.372,277.911,55,264.462,55,251c0-5.523-4.477-10-10-10s-10,4.477-10,10
				c0,14.822,1.512,29.636,4.492,44.028c0.979,4.724,5.14,7.974,9.782,7.974c0.672,0,1.355-0.068,2.039-0.21
				C56.721,301.672,60.197,296.38,59.077,290.972z"/>
			<path d="M172.982,430.859c-43.999-19.113-79.407-53.593-99.701-97.088c-2.335-5.005-8.287-7.169-13.29-4.834
				c-5.005,2.335-7.169,8.285-4.834,13.29c22.36,47.925,61.375,85.916,109.856,106.976c1.297,0.564,2.649,0.831,3.979,0.831
				c3.862,0,7.54-2.25,9.178-6.019C180.37,438.949,178.047,433.059,172.982,430.859z"/>
		</g>
	</g>
</g>
<g>
</g>
<g>
</g>
<g>
</g>
<g>
</g>
<g>
</g>
<g>
</g>
<g>
</g>
<g>
</g>
<g>
</g>
<g>
</g>
<g>
</g>
<g>
</g>
<g>
</g>
<g>
</g>
<g>
</g>
</svg>
