<?xml version="1.0" encoding="UTF-8"?>
<!DOCTYPE svg PUBLIC "-//W3C//DTD SVG 1.1//EN" "http://www.w3.org/Graphics/SVG/1.1/DTD/svg11.dtd">
<svg xmlns="http://www.w3.org/2000/svg" xmlns:xlink="http://www.w3.org/1999/xlink" version="1.1" width="248px" height="206px" viewBox="-0.5 -0.5 248 206"><defs/><g><path d="M 64 102 L 124 102 L 144 122 L 144 182 L 84 182 L 64 162 L 64 102 Z" fill="#f0feff" stroke="#000000" stroke-miterlimit="10" pointer-events="all"/><path d="M 64 102 L 124 102 L 144 122 L 84 122 Z" fill-opacity="0.05" fill="#000000" stroke="none" pointer-events="all"/><path d="M 64 102 L 84 122 L 84 182 L 64 162 Z" fill-opacity="0.1" fill="#000000" stroke="none" pointer-events="all"/><path d="M 84 182 L 84 122 L 64 102 M 84 122 L 144 122" fill="none" stroke="#000000" stroke-miterlimit="10" pointer-events="all"/><path d="M 4 102 L 64 102 L 84 122 L 84 182 L 24 182 L 4 162 L 4 102 Z" fill="#f0feff" stroke="#000000" stroke-miterlimit="10" pointer-events="all"/><path d="M 4 102 L 64 102 L 84 122 L 24 122 Z" fill-opacity="0.05" fill="#000000" stroke="none" pointer-events="all"/><path d="M 4 102 L 24 122 L 24 182 L 4 162 Z" fill-opacity="0.1" fill="#000000" stroke="none" pointer-events="all"/><path d="M 24 182 L 24 122 L 4 102 M 24 122 L 84 122" fill="none" stroke="#000000" stroke-miterlimit="10" pointer-events="all"/><path d="M 124 42 L 184 42 L 204 62 L 204 122 L 144 122 L 124 102 L 124 42 Z" fill="#f0feff" stroke="#000000" stroke-miterlimit="10" pointer-events="all"/><path d="M 124 42 L 184 42 L 204 62 L 144 62 Z" fill-opacity="0.05" fill="#000000" stroke="none" pointer-events="all"/><path d="M 124 42 L 144 62 L 144 122 L 124 102 Z" fill-opacity="0.1" fill="#000000" stroke="none" pointer-events="all"/><path d="M 144 122 L 144 62 L 124 42 M 144 62 L 204 62" fill="none" stroke="#000000" stroke-miterlimit="10" pointer-events="all"/><path d="M 64 42 L 124 42 L 144 62 L 144 122 L 84 122 L 64 102 L 64 42 Z" fill="#f0feff" stroke="#000000" stroke-miterlimit="10" pointer-events="all"/><path d="M 64 42 L 124 42 L 144 62 L 84 62 Z" fill-opacity="0.05" fill="#000000" stroke="none" pointer-events="all"/><path d="M 64 42 L 84 62 L 84 122 L 64 102 Z" fill-opacity="0.1" fill="#000000" stroke="none" pointer-events="all"/><path d="M 84 122 L 84 62 L 64 42 M 84 62 L 144 62" fill="none" stroke="#000000" stroke-miterlimit="10" pointer-events="all"/><path d="M 63 182 L 63 192" fill="none" stroke="#000000" stroke-width="3" stroke-miterlimit="10" pointer-events="stroke"/><path d="M 84 182 L 84 192" fill="none" stroke="#000000" stroke-width="3" stroke-miterlimit="10" pointer-events="stroke"/><path d="M 44 182 L 44 192" fill="none" stroke="#000000" stroke-width="3" stroke-miterlimit="10" pointer-events="stroke"/><path d="M 124 182 L 124 192" fill="none" stroke="#000000" stroke-width="3" stroke-miterlimit="10" pointer-events="stroke"/><path d="M 144 182 L 144 192" fill="none" stroke="#000000" stroke-width="3" stroke-miterlimit="10" pointer-events="stroke"/><path d="M 104 182 L 104 192" fill="none" stroke="#000000" stroke-width="3" stroke-miterlimit="10" pointer-events="stroke"/><path d="M 163.8 182 L 163.8 192" fill="none" stroke="#000000" stroke-width="3" stroke-miterlimit="10" pointer-events="stroke"/><path d="M 184 182 L 184 192" fill="none" stroke="#000000" stroke-width="3" stroke-miterlimit="10" pointer-events="stroke"/><path d="M 204 182 L 204 192" fill="none" stroke="#000000" stroke-width="3" stroke-miterlimit="10" pointer-events="stroke"/><path d="M 24 162 L 14 162" fill="none" stroke="#000000" stroke-width="3" stroke-miterlimit="10" pointer-events="stroke"/><path d="M 24 142 L 14 142" fill="none" stroke="#000000" stroke-width="3" stroke-miterlimit="10" pointer-events="stroke"/><path d="M 24 122 L 14 122" fill="none" stroke="#000000" stroke-width="3" stroke-miterlimit="10" pointer-events="stroke"/><path d="M 24 102 L 14 102" fill="none" stroke="#000000" stroke-width="3" stroke-miterlimit="10" pointer-events="stroke"/><path d="M 24 82 L 14 82" fill="none" stroke="#000000" stroke-width="3" stroke-miterlimit="10" pointer-events="stroke"/><path d="M 24 62 L 14 62" fill="none" stroke="#000000" stroke-width="3" stroke-miterlimit="10" pointer-events="stroke"/><path d="M 24 42 L 14 42" fill="none" stroke="#000000" stroke-width="3" stroke-miterlimit="10" pointer-events="stroke"/><path d="M 24 182 Q 194 152 214 52" fill="none" stroke="#b85450" stroke-width="3" stroke-miterlimit="10" pointer-events="stroke"/><path d="M 14 182 L 223.9 182" fill="none" stroke="#000000" stroke-width="3" stroke-miterlimit="10" pointer-events="stroke"/><path d="M 230.65 182 L 221.65 186.5 L 223.9 182 L 221.65 177.5 Z" fill="#000000" stroke="#000000" stroke-width="3" stroke-miterlimit="10" pointer-events="all"/><path d="M 24 192 L 24 22.1" fill="none" stroke="#000000" stroke-width="3" stroke-miterlimit="10" pointer-events="stroke"/><path d="M 24 15.35 L 28.5 24.35 L 24 22.1 L 19.5 24.35 Z" fill="#000000" stroke="#000000" stroke-width="3" stroke-miterlimit="10" pointer-events="all"/></g></svg>