<?xml version="1.0" encoding="UTF-8" standalone="no"?>
<!-- Created with Inkscape (http://www.inkscape.org/) -->

<svg
   xmlns:dc="http://purl.org/dc/elements/1.1/"
   xmlns:cc="http://creativecommons.org/ns#"
   xmlns:rdf="http://www.w3.org/1999/02/22-rdf-syntax-ns#"
   xmlns:svg="http://www.w3.org/2000/svg"
   xmlns="http://www.w3.org/2000/svg"
   xmlns:sodipodi="http://sodipodi.sourceforge.net/DTD/sodipodi-0.dtd"
   xmlns:inkscape="http://www.inkscape.org/namespaces/inkscape"
   version="1.1"
   id="svg45"
   xml:space="preserve"
   width="128.49304"
   height="233.00192"
   viewBox="0 0 128.49304 233.00192"
   sodipodi:docname="raniere.svg"
   inkscape:version="0.92.2 5c3e80d, 2017-08-06"><metadata
     id="metadata51"><rdf:RDF><cc:Work
         rdf:about=""><dc:format>image/svg+xml</dc:format><dc:type
           rdf:resource="http://purl.org/dc/dcmitype/StillImage" /><dc:title></dc:title></cc:Work></rdf:RDF></metadata><defs
     id="defs49" /><sodipodi:namedview
     pagecolor="#ffffff"
     bordercolor="#666666"
     borderopacity="1"
     objecttolerance="10"
     gridtolerance="10"
     guidetolerance="10"
     inkscape:pageopacity="0"
     inkscape:pageshadow="2"
     inkscape:window-width="1225"
     inkscape:window-height="792"
     id="namedview47"
     showgrid="false"
     inkscape:zoom="1.9259999"
     inkscape:cx="16.357542"
     inkscape:cy="188.30433"
     inkscape:window-x="0"
     inkscape:window-y="0"
     inkscape:window-maximized="0"
     inkscape:current-layer="g53"
     fit-margin-top="0"
     fit-margin-left="0"
     fit-margin-right="0"
     fit-margin-bottom="0" /><g
     id="g53"
     inkscape:groupmode="layer"
     inkscape:label="ink_ext_XXXXXX"
     transform="matrix(1.3333333,0,0,-1.3333333,-78.658034,336.49406)"><path
       inkscape:connector-curvature="0"
       id="path131"
       style="fill:#75373f;fill-opacity:1;fill-rule:nonzero;stroke:none;stroke-width:0.1"
       d="m 147.488,147.933 c -5.537,13.044 -30.389,21.792 -30.389,21.792 l -9.862,0.73 h -0.269 l -9.8102,-1.237 c 0,0 -23.8984,-8.176 -30.5383,-20.605 -8.3429,-15.617 -9.223,-43.073 -1.0511,-70.9939 h 41.3996 0.269 41.399 c 8.173,27.9209 5.771,54.0149 -1.148,70.3139" /><path
       inkscape:connector-curvature="0"
       id="path133"
       style="fill:#a1ddb1;fill-opacity:1;fill-rule:nonzero;stroke:none;stroke-width:0.1"
       d="m 101.828,167.202 c 0.513,-0.348 1.744,-6.206 13.65,-1.223 l 2.093,-88.3599 H 97.8895 l 3.9385,89.5829" /><path
       inkscape:connector-curvature="0"
       id="path135"
       style="fill:#632e35;fill-opacity:1;fill-rule:nonzero;stroke:none;stroke-width:0.1"
       d="m 115.902,174.99 c 0.789,0.242 1.629,0.324 2.45,0.237 0.33,-0.036 0.696,-0.123 0.867,-0.407 0.187,-0.31 0.056,-0.711 -0.11,-1.033 -0.324,-0.627 -0.784,-1.197 -1.387,-1.565 -0.173,-0.106 -0.362,-0.196 -0.564,-0.218 -0.202,-0.023 -0.42,0.03 -0.562,0.176 -0.192,0.197 -0.203,0.502 -0.237,0.775 -0.045,0.363 -0.151,0.719 -0.314,1.047 -0.101,0.204 -0.226,0.409 -0.223,0.637 0.002,0.226 0.204,0.468 0.423,0.41" /><path
       inkscape:connector-curvature="0"
       id="path137"
       style="fill:#632e35;fill-opacity:1;fill-rule:nonzero;stroke:none;stroke-width:0.1"
       d="m 99.0828,174.757 c -0.7898,0.242 -1.6285,0.323 -2.4504,0.236 -0.3297,-0.035 -0.6961,-0.123 -0.8668,-0.406 -0.1875,-0.311 -0.0566,-0.711 0.1098,-1.033 0.325,-0.627 0.7844,-1.199 1.3867,-1.566 0.1734,-0.106 0.3625,-0.195 0.5641,-0.217 0.2019,-0.023 0.4203,0.03 0.5625,0.175 0.1918,0.198 0.2027,0.501 0.2367,0.775 0.0449,0.364 0.1516,0.719 0.3141,1.048 0.1003,0.204 0.2253,0.409 0.2238,0.635 -0.0028,0.228 -0.2047,0.47 -0.4238,0.411" /><path
       inkscape:connector-curvature="0"
       id="path139"
       style="fill:#672f36;fill-opacity:1;fill-rule:nonzero;stroke:none;stroke-width:0.1"
       d="m 85.9098,206.719 c 1.5722,-3.375 0.7328,-7.095 -1.875,-8.31 -2.6075,-1.215 -5.9957,0.536 -7.568,3.911 -1.5719,3.374 -0.7324,7.095 1.875,8.31 2.6074,1.215 5.9961,-0.536 7.568,-3.911" /><path
       inkscape:connector-curvature="0"
       id="path141"
       style="fill:#9b4954;fill-opacity:1;fill-rule:nonzero;stroke:none;stroke-width:0.1"
       d="m 77.2543,202.54 c -0.043,1.129 0.193,2.183 0.7062,3.16 0.3309,1.017 0.8958,1.897 1.6958,2.639 0.8492,0.85 1.9367,1.504 3.1027,1.916 -1.4348,0.822 -3.0348,1.018 -4.4172,0.375 -2.6074,-1.215 -3.4469,-4.936 -1.875,-8.31 0.2949,-0.633 0.6539,-1.209 1.0598,-1.719 -0.15,0.639 -0.2434,1.292 -0.2723,1.939" /><path
       inkscape:connector-curvature="0"
       id="path143"
       style="fill:#672f36;fill-opacity:1;fill-rule:nonzero;stroke:none;stroke-width:0.1"
       d="m 130.467,206.719 c -1.572,-3.375 -0.733,-7.095 1.875,-8.31 2.607,-1.215 5.996,0.536 7.568,3.911 1.572,3.374 0.733,7.095 -1.875,8.31 -2.608,1.215 -5.996,-0.536 -7.568,-3.911" /><path
       inkscape:connector-curvature="0"
       id="path145"
       style="fill:#9b4954;fill-opacity:1;fill-rule:nonzero;stroke:none;stroke-width:0.1"
       d="m 139.123,202.54 c 0.042,1.129 -0.193,2.183 -0.707,3.16 -0.331,1.017 -0.896,1.897 -1.696,2.639 -0.849,0.85 -1.936,1.504 -3.102,1.916 1.434,0.822 3.034,1.018 4.417,0.375 2.608,-1.215 3.447,-4.936 1.875,-8.31 -0.295,-0.633 -0.654,-1.209 -1.059,-1.719 0.149,0.639 0.242,1.292 0.272,1.939" /><path
       inkscape:connector-curvature="0"
       id="path147"
       style="fill:#75373f;fill-opacity:1;fill-rule:nonzero;stroke:none;stroke-width:0.1"
       d="m 99.1543,181.424 c -0.141,0.064 -1.7875,-14.348 -3.1566,-16.391 0,0 13.1943,-4.596 22.8983,0.767 0,0 -4.407,15.141 -2.773,15.624 0,0 -11.57,-2.445 -16.9687,0" /><path
       inkscape:connector-curvature="0"
       id="path149"
       style="fill:#602c33;fill-opacity:1;fill-rule:nonzero;stroke:none;stroke-width:0.1"
       d="m 109.907,176.912 c 2.077,0.136 4.086,0.583 6.041,1.213 -0.274,1.83 -0.301,3.161 0.165,3.299 0,0 -11.57,-2.445 -16.9685,0 -0.0351,0.016 -0.1664,-0.887 -0.3648,-2.279 3.2653,-1.823 7.6683,-2.458 11.1273,-2.233" /><path
       inkscape:connector-curvature="0"
       id="path151"
       style="fill:#994852;fill-opacity:1;fill-rule:nonzero;stroke:none;stroke-width:0.1"
       d="m 135.912,213.328 c -3.47,-18.292 -3.716,-33.71 -28.262,-33.71 -23.1496,0 -25.2008,15.346 -28.2617,33.71 -3.4047,20.43 12.6531,33.709 28.2617,33.709 15.608,0 32.007,-13.96 28.262,-33.709" /><path
       inkscape:connector-curvature="0"
       id="path153"
       style="fill:#602c33;fill-opacity:1;fill-rule:nonzero;stroke:none;stroke-width:0.1"
       d="m 121.694,216.988 c 0,0 -0.512,-0.058 -1.218,-0.382 -0.71,-0.314 -1.57,-0.939 -2.391,-1.775 -0.823,-0.841 -1.537,-1.691 -2.11,-2.264 -0.567,-0.581 -0.968,-0.889 -0.968,-0.889 0,0 0.275,0.459 0.672,1.119 0.421,0.681 0.985,1.651 1.873,2.562 0.893,0.913 1.984,1.455 2.81,1.605 0.412,0.08 0.751,0.087 0.98,0.067 0.229,-0.017 0.352,-0.043 0.352,-0.043" /><path
       inkscape:connector-curvature="0"
       id="path155"
       style="fill:#602c33;fill-opacity:1;fill-rule:nonzero;stroke:none;stroke-width:0.1"
       d="m 129.883,212.89 c 0,0 -0.827,0.151 -2.013,0.51 -1.173,0.381 -2.798,0.965 -4.205,0.874 -1.506,-0.068 -2.997,-0.665 -4.112,-1.172 -1.128,-0.522 -1.867,-0.863 -1.867,-0.863 0,0 0.092,0.182 0.281,0.493 0.19,0.312 0.475,0.754 0.899,1.26 0.426,0.502 0.989,1.076 1.771,1.571 0.774,0.491 1.77,0.9 2.919,0.958 1.165,0.067 2.241,-0.316 3.009,-0.749 0.797,-0.423 1.362,-0.947 1.85,-1.387 0.964,-0.881 1.468,-1.495 1.468,-1.495" /><path
       inkscape:connector-curvature="0"
       id="path157"
       style="fill:#edf0e0;fill-opacity:1;fill-rule:nonzero;stroke:none;stroke-width:0.1"
       d="m 120.445,213.939 c -1.844,-0.871 -3.298,-2.535 -3.912,-4.479 0.966,0.466 2.045,-0.253 3.063,-0.59 0.572,-0.19 2.149,-0.688 2.751,-0.718 2.879,-0.141 5.283,0.524 7.299,2.49 0.124,0.12 0.3,0.184 0.391,0.33 0.105,0.169 0.113,0.381 0.08,0.576 -0.161,0.954 -1.141,1.522 -2.047,1.862 -2.054,0.774 -4.286,1.069 -6.47,0.857 -0.997,-0.097 -2.057,-0.337 -2.728,-1.08" /><path
       inkscape:connector-curvature="0"
       id="path159"
       style="fill:#392023;fill-opacity:1;fill-rule:nonzero;stroke:none;stroke-width:0.1"
       d="m 126.018,211.678 c 0,-1.279 -1.406,-2.315 -2.685,-2.315 -1.278,0 -2.616,1.036 -2.616,2.315 0,1.278 1.338,2.314 2.616,2.314 1.279,0 2.685,-1.036 2.685,-2.314" /><path
       inkscape:connector-curvature="0"
       id="path161"
       style="fill:#8f2733;fill-opacity:1;fill-rule:nonzero;stroke:none;stroke-width:0.1"
       d="m 99.652,194.98 c 0,0 6.461,-1.024 16.593,0 0,0 0.178,-6.621 -8.098,-6.713 0,0 -8.7654,-0.553 -8.495,6.713" /><path
       inkscape:connector-curvature="0"
       id="path163"
       style="fill:#ffffff;fill-opacity:1;fill-rule:nonzero;stroke:none;stroke-width:0.1"
       d="m 115.951,193.168 c 0.307,1.027 0.294,1.812 0.294,1.812 -10.039,-0.771 -16.593,0 -16.593,0 -0.0247,-0.665 0.0476,-1.242 0.1601,-1.782 5.4059,-0.903 10.7759,-0.815 16.1389,-0.03" /><path
       inkscape:connector-curvature="0"
       id="path165"
       style="fill:#e45768;fill-opacity:1;fill-rule:nonzero;stroke:none;stroke-width:0.1"
       d="m 103.636,188.959 c 0,0 0.614,1.157 3.94,1.157 0,0 2.191,0.186 4.337,-1.157 0,0 -0.909,-0.637 -4.172,-0.701 0,0 -2.435,0.066 -4.105,0.701" /><path
       inkscape:connector-curvature="0"
       id="path167"
       style="fill:#602c33;fill-opacity:1;fill-rule:nonzero;stroke:none;stroke-width:0.1"
       d="m 95.7766,216.988 c 0,0 0.5121,-0.058 1.2183,-0.382 0.7102,-0.314 1.5699,-0.939 2.3906,-1.775 0.8235,-0.841 1.5365,-1.691 2.1105,-2.264 0.567,-0.581 0.968,-0.889 0.968,-0.889 0,0 -0.276,0.459 -0.672,1.119 -0.421,0.681 -0.985,1.651 -1.8736,2.562 -0.893,0.913 -1.9836,1.455 -2.8094,1.605 -0.4125,0.08 -0.7504,0.087 -0.9801,0.067 -0.2297,-0.017 -0.3523,-0.043 -0.3523,-0.043" /><path
       inkscape:connector-curvature="0"
       id="path169"
       style="fill:#602c33;fill-opacity:1;fill-rule:nonzero;stroke:none;stroke-width:0.1"
       d="m 92.452,206.922 c 0,0 2.2707,-0.079 4.9652,0.421 0.6664,0.111 1.3129,0.304 1.8832,0.471 0.584,0.175 0.9926,0.44 1.3836,0.555 0.381,0.128 0.737,0.147 0.973,0.112 0.239,-0.033 0.361,-0.095 0.361,-0.095 0,0 -0.085,0.09 -0.324,0.179 -0.236,0.091 -0.641,0.153 -1.12,0.076 -0.483,-0.065 -0.9681,-0.28 -1.5135,-0.384 -0.5625,-0.105 -1.1468,-0.249 -1.821,-0.361 -2.6348,-0.491 -4.7875,-0.974 -4.7875,-0.974" /><path
       inkscape:connector-curvature="0"
       id="path171"
       style="fill:#602c33;fill-opacity:1;fill-rule:nonzero;stroke:none;stroke-width:0.1"
       d="m 126.018,206.922 c 0,0 -2.27,-0.079 -4.965,0.421 -0.667,0.111 -1.313,0.304 -1.883,0.471 -0.584,0.175 -0.994,0.44 -1.384,0.555 -0.381,0.128 -0.737,0.147 -0.973,0.112 -0.239,-0.033 -0.361,-0.095 -0.361,-0.095 0,0 0.085,0.09 0.324,0.179 0.236,0.091 0.641,0.153 1.12,0.076 0.483,-0.065 0.968,-0.28 1.514,-0.384 0.562,-0.105 1.147,-0.249 1.82,-0.361 2.636,-0.491 4.788,-0.974 4.788,-0.974" /><path
       inkscape:connector-curvature="0"
       id="path173"
       style="fill:#602c33;fill-opacity:1;fill-rule:nonzero;stroke:none;stroke-width:0.1"
       d="m 87.5879,212.89 c 0,0 0.8269,0.151 2.0129,0.51 1.173,0.381 2.7976,0.965 4.2051,0.874 1.5054,-0.068 2.9964,-0.665 4.1121,-1.172 1.1281,-0.522 1.8668,-0.863 1.8668,-0.863 0,0 -0.0918,0.182 -0.2809,0.493 -0.1898,0.312 -0.4758,0.754 -0.8992,1.26 -0.4254,0.502 -0.9895,1.076 -1.7711,1.571 -0.7738,0.491 -1.7699,0.9 -2.9188,0.958 -1.1648,0.067 -2.241,-0.316 -3.0093,-0.749 -0.7965,-0.423 -1.3621,-0.947 -1.8492,-1.387 -0.9649,-0.881 -1.4684,-1.495 -1.4684,-1.495" /><path
       inkscape:connector-curvature="0"
       id="path175"
       style="fill:#1b0f10;fill-opacity:1;fill-rule:nonzero;stroke:none;stroke-width:0.1"
       d="m 107.717,245.864 c 0.063,2.117 0.142,4.411 -0.028,6.506 0.243,0.03 -7.7648,-1.182 -7.9042,-1.21 -12.1457,-1.272 -15.2844,-6.555 -15.2844,-6.555 -0.7055,-1.37 -1.7414,-1.467 -1.7414,-1.467 -8.8059,-4.304 -4.6613,-27.257 -4.6613,-27.257 l 2.6789,-11.969 c 0.0308,-0.184 0.2238,-0.294 0.3992,-0.226 l 1.8078,0.699 c 0.1742,0.067 0.2281,0.274 0.1203,0.427 -2.0824,2.949 -2.8871,11.717 -2.8871,11.717 -0.5867,4.402 3.2281,8.218 3.2281,8.218 3.8832,4.237 5.25,8.316 5.2824,8.608 0.5739,5.126 9.7528,7.091 18.1777,7.833 0.702,1.497 0.767,3.151 0.812,4.676" /><path
       inkscape:connector-curvature="0"
       id="path177"
       style="fill:#1b0f10;fill-opacity:1;fill-rule:nonzero;stroke:none;stroke-width:0.1"
       d="m 107.717,245.864 c -0.063,2.117 -0.197,4.411 -0.028,6.506 3.802,-0.804 7.796,-1.21 7.796,-1.21 12.145,-1.272 15.285,-6.555 15.285,-6.555 0.705,-1.37 1.741,-1.467 1.741,-1.467 8.806,-4.304 4.661,-27.257 4.661,-27.257 l -2.678,-11.969 c -0.032,-0.184 -0.225,-0.294 -0.4,-0.226 l -1.807,0.699 c -0.175,0.067 -0.229,0.274 -0.121,0.427 2.082,2.949 2.887,11.717 2.887,11.717 0.587,4.402 -3.228,8.218 -3.228,8.218 -3.884,4.237 -5.25,8.316 -5.283,8.608 -0.574,5.126 -9.752,7.091 -18.178,7.833 -0.675,1.594 -0.601,3.151 -0.647,4.676" /><path
       inkscape:connector-curvature="0"
       id="path179"
       style="fill:#602c33;fill-opacity:1;fill-rule:nonzero;stroke:none;stroke-width:0.1"
       d="m 109.187,199.407 c 0,0 -1.3,0.5 -3.36,1.462 -0.264,0.133 -0.554,0.293 -0.839,0.541 -0.282,0.241 -0.558,0.609 -0.687,1.042 -0.266,0.882 -0.023,1.8 0.421,2.561 0.462,0.771 1.08,1.333 1.552,1.89 0.471,0.536 0.787,1.12 1.027,1.834 0.465,1.424 0.506,3.019 0.613,4.494 0.102,1.481 0.23,2.812 0.356,3.931 0.252,2.236 0.495,3.618 0.495,3.618 0,0 0.21,-1.386 0.411,-3.629 0.1,-1.121 0.199,-2.455 0.266,-3.936 0.053,-1.469 0.168,-3.194 -0.421,-5.046 -0.292,-0.908 -0.827,-1.804 -1.468,-2.438 -0.616,-0.626 -1.197,-1.084 -1.553,-1.555 -0.358,-0.468 -0.551,-1.011 -0.497,-1.424 0.028,-0.41 0.378,-0.789 0.805,-1.115 1.789,-1.327 2.879,-2.23 2.879,-2.23" /><path
       inkscape:connector-curvature="0"
       id="path181"
       style="fill:#291719;fill-opacity:1;fill-rule:nonzero;stroke:none;stroke-width:0.1"
       d="m 102.242,217.029 c 0,0 -0.481,0.004 -1.36,0.013 -0.879,0.011 -2.1496,0.032 -3.7398,-0.002 -1.582,-0.036 -3.5227,-0.123 -5.6633,-0.368 -0.5234,-0.063 -1.0457,-0.14 -1.5629,-0.244 -0.5055,-0.097 -1.0289,-0.25 -1.7035,-0.447 -0.6602,-0.185 -1.4137,-0.407 -2.3156,-0.5 -0.8774,-0.103 -2.0008,-0.011 -2.9438,0.501 0,0 0.109,-0.002 0.3106,-0.006 0.1968,-0.006 0.4914,0.011 0.8297,0.079 0.6918,0.125 1.4964,0.526 2.2203,1.118 0.7488,0.579 1.4465,1.337 2.4676,2.039 1.0117,0.691 2.2238,1.246 3.4351,1.644 2.4297,0.823 5.1141,1.022 7.0828,0.377 1.9828,-0.636 3.1648,-2.049 2.9428,-4.204" /><path
       inkscape:connector-curvature="0"
       id="path183"
       style="fill:#291719;fill-opacity:1;fill-rule:nonzero;stroke:none;stroke-width:0.1"
       d="m 113.98,217.029 c 0,0 0.481,0.004 1.36,0.013 0.879,0.011 2.15,0.032 3.74,-0.002 1.582,-0.036 3.523,-0.123 5.663,-0.368 0.523,-0.063 1.046,-0.14 1.563,-0.244 0.505,-0.097 1.028,-0.25 1.703,-0.447 0.661,-0.185 1.414,-0.407 2.316,-0.5 0.877,-0.103 2.001,-0.011 2.944,0.501 0,0 -0.109,-0.002 -0.311,-0.006 -0.196,-0.006 -0.491,0.011 -0.829,0.079 -0.692,0.125 -1.497,0.526 -2.221,1.118 -0.749,0.579 -1.446,1.337 -2.467,2.039 -1.012,0.691 -2.224,1.246 -3.436,1.644 -2.429,0.823 -5.114,1.022 -7.082,0.377 -1.983,-0.636 -3.165,-2.049 -2.943,-4.204" /><path
       inkscape:connector-curvature="0"
       id="path185"
       style="fill:#040606;fill-opacity:1;fill-rule:nonzero;stroke:none;stroke-width:0.1"
       d="m 124.507,211.935 c 0,-0.649 -0.526,-1.174 -1.174,-1.174 -0.648,0 -1.174,0.525 -1.174,1.174 0,0.648 0.526,1.173 1.174,1.173 0.648,0 1.174,-0.525 1.174,-1.173" /><path
       inkscape:connector-curvature="0"
       id="path187"
       style="fill:#bf5a67;fill-opacity:1;fill-rule:nonzero;stroke:none;stroke-width:0.1"
       d="m 116.933,209.355 c 0.182,0.07 0.238,0.302 0.226,0.497 -0.002,0.031 -0.005,0.063 -0.019,0.09 -0.024,0.045 -0.074,0.071 -0.122,0.086 -0.225,0.076 -0.518,-0.009 -0.599,-0.232 -0.06,-0.165 0.025,-0.369 0.184,-0.443 0.159,-0.075 0.369,-0.009 0.458,0.142" /><path
       inkscape:connector-curvature="0"
       id="path189"
       style="fill:#493236;fill-opacity:1;fill-rule:nonzero;stroke:none;stroke-width:0.1"
       d="m 130.995,211.393 c 0,0 -0.221,0.166 -0.614,0.462 -0.399,0.29 -1.002,0.672 -1.787,1.048 -1.553,0.762 -3.947,1.404 -6.542,1.07 -1.477,-0.171 -2.799,-0.709 -3.543,-1.681 -0.76,-0.963 -1.296,-2.035 -2.001,-2.633 l 0.038,0.067 c -0.072,-0.198 0.237,-0.433 0.388,-0.269 0.172,0.138 0.155,0.403 0.005,0.482 -0.326,0.173 -0.513,-0.091 -0.49,-0.071 -0.016,-0.033 0.107,0.29 0.533,0.149 0.211,-0.075 0.313,-0.448 0.077,-0.693 -0.237,-0.301 -0.882,-0.06 -0.799,0.476 l 0.005,0.031 0.034,0.036 c 0.588,0.629 0.971,1.668 1.733,2.792 0.388,0.56 0.977,1.079 1.667,1.415 0.69,0.343 1.465,0.545 2.257,0.643 2.803,0.358 5.312,-0.532 6.817,-1.484 0.767,-0.473 1.325,-0.941 1.683,-1.288 0.358,-0.346 0.539,-0.552 0.539,-0.552" /><path
       inkscape:connector-curvature="0"
       id="path191"
       style="fill:#edf0e0;fill-opacity:1;fill-rule:nonzero;stroke:none;stroke-width:0.1"
       d="m 97.2691,214.283 c 1.8442,-0.871 3.2979,-2.535 3.9129,-4.479 -0.967,0.466 -2.0457,-0.253 -3.0636,-0.59 -0.5731,-0.191 -2.1489,-0.689 -2.7512,-0.718 -2.8785,-0.141 -5.2832,0.524 -7.2996,2.489 -0.1235,0.12 -0.3,0.185 -0.3906,0.33 -0.1043,0.169 -0.1125,0.381 -0.0797,0.577 0.1609,0.954 1.141,1.522 2.0465,1.863 2.0542,0.772 4.2863,1.067 6.471,0.855 0.9965,-0.096 2.0563,-0.337 2.7274,-1.08" /><path
       inkscape:connector-curvature="0"
       id="path193"
       style="fill:#392023;fill-opacity:1;fill-rule:nonzero;stroke:none;stroke-width:0.1"
       d="m 91.6965,212.021 c 0,-1.278 1.4058,-2.314 2.6844,-2.314 1.2785,0 2.6156,1.036 2.6156,2.314 0,1.279 -1.3371,2.315 -2.6156,2.315 -1.2786,0 -2.6844,-1.036 -2.6844,-2.315" /><path
       inkscape:connector-curvature="0"
       id="path195"
       style="fill:#040606;fill-opacity:1;fill-rule:nonzero;stroke:none;stroke-width:0.1"
       d="m 93.207,212.278 c 0,-0.648 0.5254,-1.174 1.1739,-1.174 0.6484,0 1.1738,0.526 1.1738,1.174 0,0.649 -0.5254,1.174 -1.1738,1.174 -0.6485,0 -1.1739,-0.525 -1.1739,-1.174" /><path
       inkscape:connector-curvature="0"
       id="path197"
       style="fill:#bf5a67;fill-opacity:1;fill-rule:nonzero;stroke:none;stroke-width:0.1"
       d="m 100.823,209.728 c -0.182,0.07 -0.238,0.302 -0.226,0.497 0.002,0.031 0.005,0.063 0.02,0.09 0.024,0.045 0.073,0.071 0.121,0.086 0.225,0.077 0.518,-0.008 0.599,-0.232 0.059,-0.165 -0.025,-0.369 -0.184,-0.443 -0.159,-0.075 -0.369,-0.009 -0.458,0.143" /><path
       inkscape:connector-curvature="0"
       id="path199"
       style="fill:#493236;fill-opacity:1;fill-rule:nonzero;stroke:none;stroke-width:0.1"
       d="m 86.7617,211.766 c 0,0 0.1801,0.206 0.5387,0.552 0.3578,0.347 0.916,0.815 1.6824,1.288 1.5055,0.952 4.0137,1.842 6.8176,1.484 0.7926,-0.098 1.5668,-0.3 2.2566,-0.643 0.6907,-0.336 1.2789,-0.855 1.6664,-1.415 0.7626,-1.125 1.1456,-2.163 1.7346,-2.792 l 0.033,-0.035 0.005,-0.032 c 0.083,-0.536 -0.562,-0.776 -0.799,-0.476 -0.236,0.245 -0.134,0.618 0.077,0.693 0.426,0.141 0.549,-0.182 0.534,-0.149 0.022,-0.02 -0.165,0.244 -0.491,0.071 -0.15,-0.079 -0.167,-0.344 0.005,-0.482 0.151,-0.164 0.46,0.071 0.388,0.269 l 0.038,-0.067 c -0.706,0.598 -1.241,1.67 -2.0007,2.633 -0.7446,0.972 -2.0664,1.51 -3.543,1.681 -2.5949,0.334 -4.9887,-0.308 -6.5422,-1.07 -0.7851,-0.376 -1.3887,-0.758 -1.7871,-1.048 -0.3926,-0.296 -0.6133,-0.462 -0.6133,-0.462" /><path
       inkscape:connector-curvature="0"
       id="path201"
       style="fill:#d6e6b8;fill-opacity:1;fill-rule:nonzero;stroke:none;stroke-width:0.1"
       d="m 98.1172,174.543 c 0,0 -1.8481,0.201 -2.1195,-0.532 0,0 -0.1934,-1.761 6.9483,-3.816 0,0 2.624,-0.282 2.837,-3.619 V 77.6191 H 65.5684 c 0,0 -14.9922,42.1029 0.3011,71.5119 0,0 -0.032,9.327 31.2883,20.087 0,0 -1.6473,3.937 -1.9894,5.34 0,0 -0.2989,0.675 0.8293,0.724 l 2.223,-0.058 v 0 l -0.1035,-0.681" /><path
       inkscape:connector-curvature="0"
       id="path203"
       style="fill:#d6e6b8;fill-opacity:1;fill-rule:nonzero;stroke:none;stroke-width:0.1"
       d="m 116.598,174.751 c 0,0 2.117,0.228 2.389,-0.507 0,0 0.193,-1.761 -6.948,-3.814 0,0 -2.624,-0.283 -2.837,-3.62 V 77.6191 h 39.918 c 0,0 14.538,41.8199 -0.755,71.2279 0,0 0.782,9.844 -30.538,20.605 0,0 1.647,3.937 1.989,5.339 0,0 0.299,0.677 -0.829,0.726 l -2.54,-0.06 v 0 l 0.151,-0.706" /><path
       inkscape:connector-curvature="0"
       id="path205"
       style="fill:#1b0f10;fill-opacity:1;fill-rule:nonzero;stroke:none;stroke-width:0.1"
       d="m 112.679,187.07 c -1.703,-0.529 -2.961,-0.138 -4.734,0 -1.288,0.102 -2.435,-0.606 -3.755,-0.244 -5.4228,1.488 -10.8349,8.864 -2.516,9.203 1.491,0.062 3.348,-0.165 5.903,-0.3 2.614,-0.14 4.953,0.112 6.081,0.146 1.663,0.051 4.028,0.485 4.028,-2.11 0,-2.147 -1.559,-5.622 -5.007,-6.695 z m -4.733,12.006 c -7.347,0 -13.8015,-3.694 -13.8015,-8.66 0,-4.966 5.9555,-8.991 13.3025,-8.991 7.346,0 13.302,4.025 13.302,8.991 0,4.966 -5.457,8.66 -12.803,8.66" /></g></svg>