<svg fill="#EBECF0" id="Capa_1" enable-background="new 0 0 512 512" height="512" viewBox="0 0 512 512" width="512" xmlns="http://www.w3.org/2000/svg"><g><path d="m491.982 22.345h-471.964c-11.039 0-20.018 8.98-20.018 20.018v347.568c0 11.038 8.979 20.018 20.018 20.018h26.274l-31.487 31.487c-4.442 4.445-4.442 11.678.001 16.125l28.762 28.761c4.445 4.444 11.679 4.444 16.126-.001l76.372-76.372h355.917c11.038 0 20.018-8.98 20.018-20.018v-347.568c-.001-11.038-8.98-20.018-20.019-20.018zm-476.982 20.018c0-2.767 2.251-5.018 5.018-5.018h471.965c2.767 0 5.018 2.251 5.018 5.018v29.982h-298.314c-4.143 0-7.5 3.358-7.5 7.5s3.357 7.5 7.5 7.5h298.313v35h-482v-35h148.687c4.143 0 7.5-3.358 7.5-7.5s-3.357-7.5-7.5-7.5h-148.687zm5.018 352.586c-2.767 0-5.018-2.251-5.018-5.018v-252.586h54.764v146.982c0 4.142 3.357 7.5 7.5 7.5s7.5-3.358 7.5-7.5v-146.982h112.469c-38.112 20.864-64.015 61.355-64.015 107.782 0 25.214 7.64 48.678 20.727 68.198l-23.731 23.731c-4.27-2.131-9.608-1.419-13.165 2.136l-32.285 32.285v-52.15c0-4.142-3.357-7.5-7.5-7.5s-7.5 3.358-7.5 7.5v67.15l-8.472 8.472zm133.86-35.055-12.644-12.644 21.894-21.894c3.904 4.513 8.131 8.74 12.644 12.644zm-102.248 113.277-23.674-23.674c18.432-18.432 75.633-75.633 97.156-97.155.263.263 23.593 23.593 23.674 23.673-107.387 107.387-5.014 5.014-97.156 97.156zm110.308-89.094c3.553-3.555 4.264-8.893 2.134-13.162l23.732-23.732c19.52 13.086 42.983 20.727 68.197 20.727 67.702 0 122.782-55.08 122.782-122.782 0-5.409-.355-10.851-1.058-16.175-.541-4.107-4.322-6.998-8.415-6.456-4.107.541-6.997 4.309-6.456 8.416.616 4.677.929 9.459.929 14.215 0 59.431-48.351 107.782-107.782 107.782s-107.782-48.351-107.782-107.782 48.349-107.783 107.781-107.783c41.71 0 80.067 24.433 97.721 62.246 1.753 3.753 6.216 5.375 9.969 3.623s5.375-6.215 3.623-9.969c-11.288-24.179-30.009-43.554-52.666-55.9h112.59v257.604h-276.172zm330.044 10.872h-49.746v-257.604h54.764v252.586c0 2.767-2.251 5.018-5.018 5.018z"/><circle cx="37.5" cy="54.845" r="7.5"/><circle cx="68.121" cy="54.845" r="7.5"/><circle cx="98.742" cy="54.845" r="7.5"/><circle cx="449.132" cy="104.845" r="7.5"/><circle cx="474.132" cy="104.845" r="7.5"/><path d="m55.368 104.845c0 4.142 3.357 7.5 7.5 7.5h361.264c4.143 0 7.5-3.358 7.5-7.5s-3.357-7.5-7.5-7.5h-361.264c-4.142 0-7.5 3.358-7.5 7.5z"/><path d="m256 152.153c-51.267 0-92.975 41.708-92.975 92.975s41.708 92.975 92.975 92.975 92.975-41.708 92.975-92.975-41.708-92.975-92.975-92.975zm0 170.949c-42.995 0-77.975-34.979-77.975-77.975s34.979-77.975 77.975-77.975 77.975 34.979 77.975 77.975-34.98 77.975-77.975 77.975z"/><path d="m230.779 218.137c-2.519-3.289-7.225-3.915-10.515-1.396l-29.299 22.432c-1.854 1.419-2.94 3.621-2.94 5.955s1.087 4.536 2.94 5.955l29.299 22.431c3.275 2.507 7.985 1.908 10.515-1.396 2.518-3.289 1.894-7.996-1.396-10.514l-21.521-16.476 21.521-16.477c3.29-2.518 3.914-7.226 1.396-10.514z"/><path d="m281.221 218.137c-2.518 3.289-1.894 7.996 1.396 10.514l21.521 16.477-21.521 16.476c-3.289 2.518-3.913 7.226-1.396 10.514 2.526 3.299 7.235 3.907 10.515 1.396l29.299-22.431c1.854-1.419 2.94-3.621 2.94-5.955s-1.087-4.536-2.94-5.955l-29.299-22.432c-3.29-2.519-7.998-1.893-10.515 1.396z"/><path d="m264.261 214.297c-4.003-1.072-8.114 1.303-9.186 5.304l-12.639 47.171c-1.072 4.001 1.302 8.113 5.303 9.186 4.019 1.077 8.119-1.321 9.186-5.304l12.639-47.171c1.072-4.002-1.302-8.114-5.303-9.186z"/></g></svg>