<svg fill="#EBECF0" xmlns="http://www.w3.org/2000/svg" viewBox="0 0 50 50" width="250px" height="250px"><path fill="none" stroke="#EBECF0" stroke-linecap="round" stroke-linejoin="round" stroke-miterlimit="10" stroke-width="2" d="M49,11.096c-1.768,0.784-3.664,1.311-5.658,1.552c2.035-1.22,3.597-3.151,4.332-5.448c-1.903,1.127-4.013,1.947-6.255,2.388c-1.795-1.916-4.354-3.11-7.186-3.11c-5.44,0-9.849,4.409-9.849,9.847c0,0.771,0.088,1.522,0.257,2.244c-8.184-0.412-15.441-4.332-20.299-10.29c-0.848,1.458-1.332,3.149-1.332,4.953c0,3.416,1.735,6.429,4.38,8.197c-1.616-0.051-3.132-0.495-4.46-1.233c0,0.042,0,0.082,0,0.125c0,4.773,3.394,8.748,7.896,9.657c-0.824,0.227-1.694,0.346-2.592,0.346c-0.636,0-1.253-0.062-1.856-0.178c1.257,3.909,4.892,6.761,9.201,6.84c-3.368,2.641-7.614,4.213-12.23,4.213c-0.797,0-1.579-0.044-2.348-0.137c4.356,2.795,9.534,4.425,15.095,4.425c18.114,0,28.022-15.007,28.022-28.016c0-0.429-0.011-0.856-0.029-1.275C46.012,14.807,47.681,13.071,49,11.096z"/></svg>