<?xml version="1.0" encoding="UTF-8" standalone="no"?>
<!-- Created with Inkscape (http://www.inkscape.org/) -->

<svg
   xmlns:dc="http://purl.org/dc/elements/1.1/"
   xmlns:cc="http://creativecommons.org/ns#"
   xmlns:rdf="http://www.w3.org/1999/02/22-rdf-syntax-ns#"
   xmlns:svg="http://www.w3.org/2000/svg"
   xmlns="http://www.w3.org/2000/svg"
   xmlns:sodipodi="http://sodipodi.sourceforge.net/DTD/sodipodi-0.dtd"
   xmlns:inkscape="http://www.inkscape.org/namespaces/inkscape"
   version="1.1"
   id="svg45"
   xml:space="preserve"
   width="127.91199"
   height="249.20895"
   viewBox="0 0 127.912 249.20895"
   sodipodi:docname="yatindra.svg"
   inkscape:version="0.92.2 5c3e80d, 2017-08-06"><metadata
     id="metadata51"><rdf:RDF><cc:Work
         rdf:about=""><dc:format>image/svg+xml</dc:format><dc:type
           rdf:resource="http://purl.org/dc/dcmitype/StillImage" /><dc:title></dc:title></cc:Work></rdf:RDF></metadata><defs
     id="defs49" /><sodipodi:namedview
     pagecolor="#ffffff"
     bordercolor="#666666"
     borderopacity="1"
     objecttolerance="10"
     gridtolerance="10"
     guidetolerance="10"
     inkscape:pageopacity="0"
     inkscape:pageshadow="2"
     inkscape:window-width="1225"
     inkscape:window-height="792"
     id="namedview47"
     showgrid="false"
     inkscape:zoom="0.96299997"
     inkscape:cx="-143.59765"
     inkscape:cy="188.54433"
     inkscape:window-x="0"
     inkscape:window-y="0"
     inkscape:window-maximized="0"
     inkscape:current-layer="g53"
     fit-margin-top="0"
     fit-margin-left="0"
     fit-margin-right="0"
     fit-margin-bottom="0" /><g
     id="g53"
     inkscape:groupmode="layer"
     inkscape:label="ink_ext_XXXXXX"
     transform="matrix(1.3333333,0,0,-1.3333333,-269.24666,352.46108)"><path
       inkscape:connector-curvature="0"
       id="path283"
       style="fill:#d37a5c;fill-opacity:1;fill-rule:nonzero;stroke:none;stroke-width:0.1"
       d="m 228.671,208.007 c 1.572,-3.375 0.733,-7.096 -1.875,-8.311 -2.607,-1.215 -5.996,0.536 -7.567,3.911 -1.573,3.375 -0.733,7.096 1.875,8.31 2.607,1.215 5.995,-0.536 7.567,-3.91" /><path
       inkscape:connector-curvature="0"
       id="path285"
       style="fill:#f68c6d;fill-opacity:1;fill-rule:nonzero;stroke:none;stroke-width:0.1"
       d="m 220.016,203.828 c -0.043,1.129 0.192,2.182 0.706,3.159 0.331,1.017 0.896,1.897 1.696,2.64 0.849,0.85 1.936,1.503 3.102,1.915 -1.434,0.823 -3.034,1.02 -4.416,0.375 -2.608,-1.214 -3.448,-4.935 -1.875,-8.31 0.294,-0.632 0.653,-1.209 1.059,-1.718 -0.15,0.638 -0.243,1.292 -0.272,1.939" /><path
       inkscape:connector-curvature="0"
       id="path287"
       style="fill:#d37a5c;fill-opacity:1;fill-rule:nonzero;stroke:none;stroke-width:0.1"
       d="m 273.229,208.007 c -1.573,-3.375 -0.733,-7.096 1.875,-8.311 2.607,-1.215 5.996,0.536 7.567,3.911 1.572,3.375 0.733,7.096 -1.874,8.31 -2.609,1.215 -5.996,-0.536 -7.568,-3.91" /><path
       inkscape:connector-curvature="0"
       id="path289"
       style="fill:#f68c6d;fill-opacity:1;fill-rule:nonzero;stroke:none;stroke-width:0.1"
       d="m 281.884,203.828 c 0.043,1.129 -0.193,2.182 -0.706,3.159 -0.331,1.017 -0.897,1.897 -1.697,2.64 -0.848,0.85 -1.936,1.503 -3.101,1.915 1.433,0.823 3.034,1.02 4.417,0.375 2.607,-1.214 3.446,-4.935 1.874,-8.31 -0.295,-0.632 -0.653,-1.209 -1.059,-1.718 0.15,0.638 0.243,1.292 0.272,1.939" /><path
       inkscape:connector-curvature="0"
       id="path291"
       style="fill:#e08061;fill-opacity:1;fill-rule:nonzero;stroke:none;stroke-width:0.1"
       d="m 290.749,147.753 c -5.537,13.044 -30.39,21.792 -30.39,21.792 l -9.861,0.731 h -0.27 l -9.81,-1.237 c 0,0 -23.898,-8.177 -30.538,-20.605 -8.343,-15.617 -9.223,-43.074 -1.051,-70.9949 h 41.399 0.27 41.398 c 8.172,27.9209 5.771,54.0159 -1.147,70.3139" /><path
       inkscape:connector-curvature="0"
       id="path293"
       style="fill:#434f33;fill-opacity:1;fill-rule:nonzero;stroke:none;stroke-width:0.1"
       d="m 286.628,148.73 c 0.439,1.394 0.943,2.743 1.493,4.059 -10.015,9.637 -19.339,15.777 -27.366,17.501 -4.915,1.056 -15.248,0.654 -20.099,-0.666 -8.651,-2.355 -20.698,-8.435 -30.024,-19.104 0.662,-1.598 1.351,-3.298 1.763,-4.945 2.242,-8.97 2.423,-18.301 3.784,-27.445 2,-13.441 2.997,-26.3921 2.538,-40.6909 h 61.91 c -0.094,12.9398 -0.186,24.7729 1.099,37.4559 1.15,11.365 1.458,22.919 4.902,33.835" /><path
       inkscape:connector-curvature="0"
       id="path295"
       style="fill:#272e1d;fill-opacity:1;fill-rule:nonzero;stroke:none;stroke-width:0.1"
       d="m 239.248,165.033 c 0,0 -3.45,2.075 0.787,2.273 0,0 -0.234,-1.368 -0.787,-2.273" /><path
       inkscape:connector-curvature="0"
       id="path297"
       style="fill:#272e1d;fill-opacity:1;fill-rule:nonzero;stroke:none;stroke-width:0.1"
       d="m 262.146,165.8 c 0,0 3.553,2.25 -0.682,2.446 0,0 0.263,-1.581 0.682,-2.446" /><path
       inkscape:connector-curvature="0"
       id="path299"
       style="fill:#e08061;fill-opacity:1;fill-rule:nonzero;stroke:none;stroke-width:0.1"
       d="m 242.415,181.424 c -0.142,0.064 -1.788,-14.348 -3.157,-16.391 0,0 13.194,-4.596 22.898,0.767 0,0 -4.407,15.141 -2.773,15.624 0,0 -11.57,-2.445 -16.968,0" /><path
       inkscape:connector-curvature="0"
       id="path301"
       style="fill:#bf6f55;fill-opacity:1;fill-rule:nonzero;stroke:none;stroke-width:0.1"
       d="m 253.167,176.912 c 2.078,0.136 4.087,0.583 6.041,1.213 -0.274,1.83 -0.3,3.161 0.166,3.299 0,0 -11.57,-2.445 -16.969,0 -0.035,0.016 -0.167,-0.887 -0.365,-2.279 3.265,-1.823 7.668,-2.458 11.127,-2.233" /><path
       inkscape:connector-curvature="0"
       id="path303"
       style="fill:#e08061;fill-opacity:1;fill-rule:nonzero;stroke:none;stroke-width:0.1"
       d="m 279.172,213.328 c -3.469,-18.292 -8.513,-33.71 -28.262,-33.71 -19.749,0 -25.201,15.346 -28.262,33.71 -3.404,20.43 12.654,33.709 28.262,33.709 15.609,0 32.007,-13.96 28.262,-33.709" /><path
       inkscape:connector-curvature="0"
       id="path305"
       style="fill:#2c0f12;fill-opacity:1;fill-rule:nonzero;stroke:none;stroke-width:0.1"
       d="m 226.109,198.565 c 1.587,-0.213 1.587,-0.213 3.083,0.2 -2.822,5.279 -3.059,10.145 -3.516,15.486 -0.394,4.6 0.908,8.814 3.27,12.781 2.313,3.887 3.619,8.12 8.085,11.755 0.654,0.533 0.88,1.47 1.554,1.977 0.791,0.594 1.802,0.797 2.778,0.96 4.89,0.812 6.754,-2.334 11.697,-2.724 2.287,-0.181 7.784,2.838 9.686,1.556 1.282,-0.864 5.506,-0.724 6.406,-1.98 6.638,-9.26 8.046,-29.031 4.042,-40.076 0,0 1.174,0 2.233,0 5.767,11.194 12.332,26.714 10.513,39.175 -0.537,3.685 -1.744,7.29 -3.68,10.471 -2.013,3.305 -4.782,6.11 -7.887,8.419 -4.277,3.18 -9.226,5.453 -14.425,6.627 -4.921,1.11 -10.01,1.239 -15.052,1.116 -4.25,-0.104 -8.597,-0.406 -12.499,-2.092 -4.586,-1.981 -8.162,-5.692 -11.607,-9.31 -1.32,-1.385 -2.703,-2.894 -3.004,-4.784 -0.24,-1.505 0.224,-3.17 -0.533,-4.492 -0.413,-0.721 -1.14,-1.228 -1.52,-1.967 -0.427,-0.831 -0.35,-1.821 -0.263,-2.752 0.572,-6.115 1.173,-12.342 3.56,-18.002 0.561,-1.327 0.977,-3.471 1.34,-4.865 1.616,-6.224 3.58,-10.892 5.739,-17.479" /><path
       inkscape:connector-curvature="0"
       id="path307"
       style="fill:#c47257;fill-opacity:1;fill-rule:nonzero;stroke:none;stroke-width:0.1"
       d="m 249.488,202.392 c -0.425,0.326 -0.753,0.704 -0.781,1.114 -0.098,0.733 0.002,1.402 0.635,2.054 0.357,0.472 0.991,0.776 1.608,1.402 0.641,0.633 0.96,1.053 1.252,1.961 0.589,1.852 0.473,3.578 0.421,5.046 -0.056,1.22 -0.133,2.334 -0.214,3.317 -0.009,-0.013 -0.021,-0.025 -0.03,-0.038 -0.102,-0.97 -0.202,-2.063 -0.284,-3.262 -0.108,-1.475 -0.149,-3.07 -0.613,-4.494 -0.016,-0.048 -0.056,-0.094 -0.082,-0.14 -0.155,-0.448 -0.402,-0.868 -0.73,-1.227 -0.073,-0.081 -0.157,-0.151 -0.238,-0.225 -0.276,-0.41 -0.601,-0.805 -0.99,-1.186 -0.469,-0.459 -1.196,-0.949 -1.812,-1.506 -0.255,-0.631 -0.352,-1.326 -0.148,-2.001 0.129,-0.434 0.404,-0.801 0.687,-1.043 0.285,-0.247 0.574,-0.407 0.839,-0.54 2.059,-0.962 4.052,-0.222 4.052,-0.222 0,0 -1.782,-0.338 -3.572,0.99" /><path
       inkscape:connector-curvature="0"
       id="path309"
       style="fill:#c47257;fill-opacity:1;fill-rule:nonzero;stroke:none;stroke-width:0.1"
       d="m 238.511,218.272 c 0,0 0.512,-0.058 1.218,-0.381 0.71,-0.315 1.57,-0.941 2.391,-1.776 0.823,-0.842 1.537,-1.691 2.11,-2.264 0.568,-0.58 0.969,-0.89 0.969,-0.89 0,0 -0.276,0.46 -0.673,1.12 -0.421,0.68 -0.984,1.651 -1.873,2.562 -0.893,0.913 -1.984,1.456 -2.81,1.604 -0.412,0.081 -0.75,0.087 -0.98,0.067 -0.229,-0.017 -0.352,-0.042 -0.352,-0.042" /><path
       inkscape:connector-curvature="0"
       id="path311"
       style="fill:#c47257;fill-opacity:1;fill-rule:nonzero;stroke:none;stroke-width:0.1"
       d="m 230.769,212.433 c 0,0 0.883,0.568 2.151,1.08 1.254,0.542 2.99,1.374 4.494,1.244 1.609,-0.097 3.202,-0.946 4.395,-1.67 1.205,-0.742 1.995,-1.228 1.995,-1.228 0,0 -0.098,0.259 -0.3,0.703 -0.204,0.444 -0.509,1.074 -0.962,1.793 -0.454,0.715 -1.057,1.532 -1.892,2.237 -0.828,0.699 -1.892,1.282 -3.119,1.365 -1.246,0.095 -2.396,-0.451 -3.217,-1.067 -0.864,-0.513 -1.693,-1.181 -2.368,-1.977 -1.06,-1.152 -1.177,-2.48 -1.177,-2.48" /><path
       inkscape:connector-curvature="0"
       id="path313"
       style="fill:#edf0e0;fill-opacity:1;fill-rule:nonzero;stroke:none;stroke-width:0.1"
       d="m 240.45,215.037 c 1.844,-0.87 3.298,-2.534 3.912,-4.478 -0.966,0.465 -2.045,-0.253 -3.063,-0.591 -0.573,-0.19 -2.115,-0.319 -2.717,-0.349 -2.879,-0.141 -4.637,0.459 -7.334,2.121 -0.146,0.09 -0.577,0.379 -0.479,0.693 0.089,0.285 0.473,0.809 0.742,0.947 0.93,0.475 0.408,0.788 1.313,1.129 2.055,0.772 4.287,1.068 6.471,0.856 0.997,-0.096 2.057,-0.338 2.728,-1.08" /><path
       inkscape:connector-curvature="0"
       id="path315"
       style="fill:#392023;fill-opacity:1;fill-rule:nonzero;stroke:none;stroke-width:0.1"
       d="m 234.912,213.328 c 0,-1.279 1.405,-2.315 2.684,-2.315 1.279,0 2.616,1.036 2.616,2.315 0,1.278 -1.337,2.315 -2.616,2.315 -1.279,0 -2.684,-1.037 -2.684,-2.315" /><path
       inkscape:connector-curvature="0"
       id="path317"
       style="fill:#040606;fill-opacity:1;fill-rule:nonzero;stroke:none;stroke-width:0.1"
       d="m 236.422,213.585 c 0,-0.648 0.526,-1.174 1.174,-1.174 0.648,0 1.174,0.526 1.174,1.174 0,0.648 -0.526,1.174 -1.174,1.174 -0.648,0 -1.174,-0.526 -1.174,-1.174" /><path
       inkscape:connector-curvature="0"
       id="path319"
       style="fill:#bf5a67;fill-opacity:1;fill-rule:nonzero;stroke:none;stroke-width:0.1"
       d="m 244.003,210.113 c -0.181,0.076 -0.237,0.324 -0.225,0.533 0.001,0.035 0.005,0.069 0.019,0.098 0.024,0.048 0.074,0.075 0.122,0.092 0.225,0.082 0.518,-0.01 0.599,-0.249 0.059,-0.177 -0.025,-0.396 -0.184,-0.476 -0.159,-0.08 -0.37,-0.009 -0.458,0.154" /><path
       inkscape:connector-curvature="0"
       id="path321"
       style="fill:#281f20;fill-opacity:1;fill-rule:nonzero;stroke:none;stroke-width:0.1"
       d="m 229.484,211.674 c 0,0 0.16,0.242 0.487,0.657 0.334,0.409 0.862,0.975 1.629,1.547 1.504,1.134 4.104,2.297 7.105,1.991 0.852,-0.082 1.681,-0.295 2.419,-0.661 0.739,-0.358 1.355,-0.926 1.755,-1.531 0.784,-1.217 1.157,-2.34 1.761,-3.028 l 0.029,-0.033 0.005,-0.031 c 0.044,-0.256 -0.091,-0.466 -0.263,-0.569 -0.175,-0.12 -0.434,-0.065 -0.536,0.075 -0.223,0.26 -0.139,0.622 0.067,0.721 0.199,0.103 0.372,0.032 0.449,-0.03 0.081,-0.065 0.097,-0.118 0.097,-0.118 0.025,-0.025 -0.166,0.27 -0.499,0.075 -0.145,-0.092 -0.157,-0.37 0.014,-0.523 0.154,-0.181 0.464,0.074 0.39,0.302 l 0.034,-0.065 c -0.72,0.659 -1.246,1.818 -2.031,2.87 -0.767,1.064 -2.19,1.657 -3.771,1.8 -2.753,0.285 -5.258,-0.613 -6.816,-1.557 -0.789,-0.474 -1.371,-0.958 -1.752,-1.315 -0.368,-0.369 -0.573,-0.577 -0.573,-0.577" /><path
       inkscape:connector-curvature="0"
       id="path323"
       style="fill:#c47257;fill-opacity:1;fill-rule:nonzero;stroke:none;stroke-width:0.1"
       d="m 230.769,212.433 c -0.015,0.004 -0.04,-0.234 0.273,-0.445 0.284,-0.218 0.75,-0.46 1.357,-0.678 0.313,-0.125 0.654,-0.26 1.017,-0.404 0.367,-0.151 0.698,-0.33 1.102,-0.46 0.785,-0.272 1.704,-0.467 2.669,-0.618 0.475,-0.053 0.928,-0.156 1.367,-0.109 0.44,0.025 0.897,0.092 1.313,0.15 0.834,0.129 1.582,0.318 2.203,0.507 0.628,0.19 1.147,0.333 1.513,0.399 0.367,0.073 0.573,0.057 0.573,0.057 0,0 -0.202,-0.031 -0.54,-0.169 -0.341,-0.133 -0.817,-0.359 -1.413,-0.638 -0.602,-0.281 -1.348,-0.57 -2.215,-0.777 -0.437,-0.098 -0.877,-0.192 -1.378,-0.245 -0.506,-0.072 -1.022,0.024 -1.539,0.084 -1.009,0.158 -1.958,0.407 -2.786,0.771 -0.413,0.169 -0.79,0.419 -1.118,0.6 -0.33,0.182 -0.64,0.353 -0.924,0.51 -0.59,0.314 -1.031,0.65 -1.282,0.935 -0.125,0.142 -0.201,0.278 -0.214,0.38 -0.012,0.105 0.028,0.149 0.022,0.15" /><path
       inkscape:connector-curvature="0"
       id="path325"
       style="fill:#c47257;fill-opacity:1;fill-rule:nonzero;stroke:none;stroke-width:0.1"
       d="m 264.172,218.272 c 0,0 -0.513,-0.058 -1.219,-0.381 -0.71,-0.315 -1.57,-0.941 -2.39,-1.776 -0.824,-0.842 -1.538,-1.691 -2.112,-2.264 -0.566,-0.58 -0.968,-0.89 -0.968,-0.89 0,0 0.277,0.46 0.672,1.12 0.422,0.68 0.986,1.651 1.874,2.562 0.894,0.913 1.984,1.456 2.81,1.604 0.412,0.081 0.751,0.087 0.98,0.067 0.23,-0.017 0.353,-0.042 0.353,-0.042" /><path
       inkscape:connector-curvature="0"
       id="path327"
       style="fill:#c47257;fill-opacity:1;fill-rule:nonzero;stroke:none;stroke-width:0.1"
       d="m 271.913,212.433 c 0,0 -0.883,0.568 -2.15,1.08 -1.254,0.542 -2.991,1.374 -4.494,1.244 -1.61,-0.097 -3.204,-0.946 -4.395,-1.67 -1.206,-0.742 -1.995,-1.228 -1.995,-1.228 0,0 0.098,0.259 0.3,0.703 0.203,0.444 0.508,1.074 0.961,1.793 0.455,0.715 1.057,1.532 1.892,2.237 0.827,0.699 1.893,1.282 3.119,1.365 1.246,0.095 2.396,-0.451 3.217,-1.067 0.864,-0.513 1.694,-1.181 2.368,-1.977 1.061,-1.152 1.177,-2.48 1.177,-2.48" /><path
       inkscape:connector-curvature="0"
       id="path329"
       style="fill:#edf0e0;fill-opacity:1;fill-rule:nonzero;stroke:none;stroke-width:0.1"
       d="m 262.232,215.037 c -1.844,-0.87 -3.297,-2.534 -3.912,-4.478 0.966,0.465 2.045,-0.253 3.064,-0.591 0.572,-0.19 2.114,-0.319 2.717,-0.349 2.878,-0.141 4.636,0.459 7.333,2.121 0.147,0.09 0.577,0.379 0.479,0.693 -0.089,0.285 -0.473,0.809 -0.742,0.947 -0.93,0.475 -0.407,0.788 -1.314,1.129 -2.053,0.772 -4.286,1.068 -6.47,0.856 -0.997,-0.096 -2.057,-0.338 -2.728,-1.08" /><path
       inkscape:connector-curvature="0"
       id="path331"
       style="fill:#392023;fill-opacity:1;fill-rule:nonzero;stroke:none;stroke-width:0.1"
       d="m 267.771,213.328 c 0,-1.279 -1.406,-2.315 -2.685,-2.315 -1.278,0 -2.615,1.036 -2.615,2.315 0,1.278 1.337,2.315 2.615,2.315 1.279,0 2.685,-1.037 2.685,-2.315" /><path
       inkscape:connector-curvature="0"
       id="path333"
       style="fill:#040606;fill-opacity:1;fill-rule:nonzero;stroke:none;stroke-width:0.1"
       d="m 266.26,213.585 c 0,-0.648 -0.526,-1.174 -1.174,-1.174 -0.648,0 -1.174,0.526 -1.174,1.174 0,0.648 0.526,1.174 1.174,1.174 0.648,0 1.174,-0.526 1.174,-1.174" /><path
       inkscape:connector-curvature="0"
       id="path335"
       style="fill:#bf5a67;fill-opacity:1;fill-rule:nonzero;stroke:none;stroke-width:0.1"
       d="m 258.679,210.113 c 0.181,0.076 0.237,0.324 0.225,0.533 -0.002,0.035 -0.005,0.069 -0.019,0.098 -0.024,0.048 -0.073,0.075 -0.121,0.092 -0.226,0.082 -0.519,-0.01 -0.599,-0.249 -0.061,-0.177 0.024,-0.396 0.184,-0.476 0.158,-0.08 0.369,-0.009 0.458,0.154" /><path
       inkscape:connector-curvature="0"
       id="path337"
       style="fill:#281f20;fill-opacity:1;fill-rule:nonzero;stroke:none;stroke-width:0.1"
       d="m 273.198,211.674 c 0,0 -0.206,0.208 -0.573,0.577 -0.38,0.357 -0.962,0.841 -1.752,1.315 -1.558,0.944 -4.062,1.842 -6.815,1.557 -1.581,-0.143 -3.005,-0.736 -3.772,-1.8 -0.784,-1.052 -1.31,-2.211 -2.031,-2.87 l 0.034,0.065 c -0.074,-0.228 0.236,-0.483 0.391,-0.302 0.171,0.153 0.159,0.431 0.013,0.523 -0.334,0.195 -0.524,-0.1 -0.499,-0.075 0,0 0.016,0.053 0.098,0.118 0.076,0.062 0.25,0.133 0.448,0.03 0.205,-0.099 0.29,-0.461 0.067,-0.721 -0.102,-0.14 -0.361,-0.195 -0.536,-0.075 -0.171,0.103 -0.306,0.313 -0.263,0.569 l 0.006,0.031 0.029,0.033 c 0.603,0.688 0.977,1.811 1.76,3.028 0.4,0.605 1.016,1.173 1.756,1.531 0.737,0.366 1.566,0.579 2.419,0.661 3.001,0.306 5.6,-0.857 7.104,-1.991 0.767,-0.572 1.296,-1.138 1.629,-1.547 0.327,-0.415 0.487,-0.657 0.487,-0.657" /><path
       inkscape:connector-curvature="0"
       id="path339"
       style="fill:#c47257;fill-opacity:1;fill-rule:nonzero;stroke:none;stroke-width:0.1"
       d="m 271.913,212.433 c 0.016,0.004 0.04,-0.234 -0.273,-0.445 -0.284,-0.218 -0.749,-0.46 -1.357,-0.678 -0.313,-0.125 -0.654,-0.26 -1.016,-0.404 -0.368,-0.151 -0.7,-0.33 -1.103,-0.46 -0.785,-0.272 -1.703,-0.467 -2.669,-0.618 -0.474,-0.053 -0.928,-0.156 -1.367,-0.109 -0.44,0.025 -0.897,0.092 -1.313,0.15 -0.834,0.129 -1.582,0.318 -2.203,0.507 -0.628,0.19 -1.147,0.333 -1.513,0.399 -0.367,0.073 -0.574,0.057 -0.574,0.057 0,0 0.204,-0.031 0.541,-0.169 0.34,-0.133 0.818,-0.359 1.413,-0.638 0.602,-0.281 1.347,-0.57 2.215,-0.777 0.437,-0.098 0.877,-0.192 1.378,-0.245 0.506,-0.072 1.022,0.024 1.539,0.084 1.009,0.158 1.958,0.407 2.786,0.771 0.413,0.169 0.79,0.419 1.119,0.6 0.33,0.182 0.639,0.353 0.923,0.51 0.59,0.314 1.032,0.65 1.282,0.935 0.125,0.142 0.201,0.278 0.215,0.38 0.01,0.105 -0.029,0.149 -0.023,0.15" /><path
       inkscape:connector-curvature="0"
       id="path341"
       style="fill:#1b0b0d;fill-opacity:1;fill-rule:nonzero;stroke:none;stroke-width:0.1"
       d="m 257.59,218.764 c -0.031,0 -0.043,0 -0.085,0.086 -0.289,0.5 -0.713,1.794 -0.041,3.366 0.012,0.028 0.07,0.133 0.1,0.148 0.042,0.001 0.838,0.022 2.009,0.051 1.176,0.021 2.745,0.027 4.329,-0.083 1.581,-0.104 3.176,-0.348 4.36,-0.643 1.184,-0.282 1.961,-0.573 1.961,-0.573 0,0 0.486,-0.262 1.105,-0.698 0.619,-0.434 1.358,-1.068 1.874,-1.714 0.909,-1.035 0.956,-1.621 0.69,-1.816 -0.279,-0.209 -0.889,-0.087 -1.572,0.088 0.047,-0.069 -0.732,0.223 -1.542,0.426 -0.811,0.207 -1.651,0.328 -1.651,0.328 0,0 -0.653,0.238 -1.68,0.474 -1.023,0.244 -2.424,0.456 -3.866,0.544 -1.44,0.096 -2.915,0.09 -4.043,0.067 -1.135,-0.03 -1.906,-0.05 -1.948,-0.051" /><path
       inkscape:connector-curvature="0"
       id="path343"
       style="fill:#1b0b0d;fill-opacity:1;fill-rule:nonzero;stroke:none;stroke-width:0.1"
       d="m 244.655,218.759 c 0.032,0 0.043,-10e-4 0.085,0.085 0.29,0.5 0.714,1.794 0.044,3.366 -0.012,0.028 -0.071,0.134 -0.101,0.149 -0.042,0.001 -0.838,0.022 -2.009,0.052 -1.176,0.022 -2.745,0.029 -4.329,-0.081 -1.581,-0.103 -3.176,-0.345 -4.36,-0.64 -1.185,-0.28 -1.961,-0.571 -1.961,-0.571 0,0 -0.487,-0.261 -1.106,-0.697 -0.619,-0.434 -1.358,-1.068 -1.876,-1.713 -0.909,-1.034 -0.957,-1.62 -0.69,-1.815 0.278,-0.21 0.889,-0.088 1.572,0.086 -0.048,-0.068 0.732,0.223 1.542,0.425 0.811,0.207 1.652,0.327 1.652,0.327 0,0 0.653,0.237 1.679,0.474 1.024,0.242 2.424,0.453 3.868,0.541 1.44,0.094 2.914,0.087 4.043,0.065 1.134,-0.032 1.905,-0.052 1.947,-0.053" /><path
       inkscape:connector-curvature="0"
       id="path345"
       style="fill:#ce7658;fill-opacity:1;fill-rule:nonzero;stroke:none;stroke-width:0.1"
       d="m 230.346,210.557 c 0,0 0.097,-0.171 0.362,-0.374 0.27,-0.203 0.721,-0.367 1.312,-0.503 0.295,-0.075 0.626,-0.147 0.98,-0.281 0.355,-0.135 0.701,-0.333 1.049,-0.528 0.681,-0.414 1.455,-0.669 2.351,-0.703 1.778,-0.048 3.44,0.433 4.647,0.583 1.207,0.193 1.959,0.285 1.959,0.285 0,0 -0.719,-0.238 -1.893,-0.578 -0.589,-0.168 -1.283,-0.369 -2.073,-0.564 -0.79,-0.189 -1.69,-0.369 -2.668,-0.326 -0.973,0.027 -1.923,0.392 -2.586,0.871 -0.664,0.478 -1.26,0.752 -1.855,0.955 -0.577,0.209 -1.041,0.46 -1.284,0.718 -0.242,0.259 -0.301,0.445 -0.301,0.445" /><path
       inkscape:connector-curvature="0"
       id="path347"
       style="fill:#ce7658;fill-opacity:1;fill-rule:nonzero;stroke:none;stroke-width:0.1"
       d="m 272.007,210.557 c 0,0 -0.06,-0.186 -0.302,-0.445 -0.243,-0.258 -0.706,-0.509 -1.283,-0.718 -0.596,-0.203 -1.193,-0.477 -1.857,-0.955 -0.662,-0.479 -1.612,-0.844 -2.585,-0.871 -0.978,-0.043 -1.877,0.137 -2.667,0.326 -0.791,0.195 -1.486,0.396 -2.074,0.564 -1.174,0.34 -1.893,0.578 -1.893,0.578 0,0 0.752,-0.092 1.959,-0.285 1.207,-0.15 2.87,-0.631 4.647,-0.583 0.896,0.034 1.67,0.289 2.352,0.703 0.347,0.195 0.693,0.393 1.049,0.528 0.354,0.134 0.684,0.206 0.979,0.281 0.591,0.136 1.043,0.3 1.312,0.503 0.265,0.203 0.363,0.374 0.363,0.374" /><path
       inkscape:connector-curvature="0"
       id="path349"
       style="fill:#ce7658;fill-opacity:1;fill-rule:nonzero;stroke:none;stroke-width:0.1"
       d="m 257.42,187.431 c 0,0 -0.564,-0.316 -1.561,-0.64 -0.992,-0.329 -2.434,-0.605 -4.034,-0.607 -1.6,-0.001 -3.026,0.229 -4.043,0.432 -1.018,0.207 -1.636,0.383 -1.636,0.383 0,0 0.671,-0.034 1.674,-0.085 1.031,-0.055 2.448,-0.131 4.003,-0.13 3.114,-0.055 5.597,0.647 5.597,0.647" /><path
       inkscape:connector-curvature="0"
       id="path351"
       style="fill:#434f33;fill-opacity:1;fill-rule:nonzero;stroke:none;stroke-width:0.1"
       d="m 288.121,152.789 c 0,0 8.965,-11.791 9.748,-21.965 0,0 -8.21,-3.737 -15.477,0.958 0,0 1.072,11.61 5.729,21.007" /><path
       inkscape:connector-curvature="0"
       id="path353"
       style="fill:#434f33;fill-opacity:1;fill-rule:nonzero;stroke:none;stroke-width:0.1"
       d="m 212.666,152.687 c 0,0 -9.49,-11.374 -10.731,-21.502 0,0 8.032,-4.105 15.504,0.257 0,0 -0.546,11.646 -4.773,21.245" /><path
       inkscape:connector-curvature="0"
       id="path355"
       style="fill:#cc6f50;fill-opacity:1;fill-rule:nonzero;stroke:none;stroke-width:0.1"
       d="m 243.557,191.153 c 2.033,1.215 3.56,2.912 6.563,3.751 0.459,0.128 0.947,0.364 1.395,0.189 0.208,-0.081 0.387,-0.236 0.613,-0.255 0.238,-0.022 0.452,0.114 0.669,0.204 0.695,0.289 1.516,0.125 2.236,-0.116 1.972,-0.659 3.765,-1.458 4.976,-3.02 -4.432,-0.81 -9.069,-1.358 -13.557,-0.801 -0.95,0.119 -2.047,-0.448 -2.74,0.157" /><path
       inkscape:connector-curvature="0"
       id="path357"
       style="fill:#bd6d54;fill-opacity:1;fill-rule:nonzero;stroke:none;stroke-width:0.1"
       d="m 260.009,191.906 c 0,0 -0.78,-0.719 -2.122,-1.592 -0.675,-0.437 -1.471,-0.91 -2.415,-1.354 -0.952,-0.437 -2.132,-0.87 -3.573,-0.93 -0.715,-0.032 -1.459,0.072 -2.08,0.232 -0.625,0.165 -1.167,0.383 -1.65,0.607 -0.963,0.457 -1.695,0.925 -2.336,1.287 -0.634,0.368 -1.181,0.629 -1.598,0.776 -0.209,0.087 -0.377,0.125 -0.495,0.164 -0.119,0.037 -0.183,0.057 -0.183,0.057 0,0 0.054,0.037 0.155,0.109 0.104,0.067 0.26,0.181 0.478,0.28 0.43,0.224 1.127,0.454 1.991,0.541 0.861,0.097 1.872,0.055 2.85,-0.024 0.456,-0.034 0.933,-0.069 1.428,-0.105 0.459,-0.019 0.853,-0.029 1.299,-0.01 0.887,0.031 1.874,0.136 2.866,0.209 1,0.08 1.953,0.088 2.748,0.05 1.599,-0.072 2.637,-0.297 2.637,-0.297" /></g></svg>